<?xml version="1.0" encoding="utf-8" standalone="no"?>
<!DOCTYPE svg PUBLIC "-//W3C//DTD SVG 1.1//EN"
  "http://www.w3.org/Graphics/SVG/1.1/DTD/svg11.dtd">
<svg xmlns:xlink="http://www.w3.org/1999/xlink" width="728.178125pt" height="503.394375pt" viewBox="0 0 728.178125 503.394375" xmlns="http://www.w3.org/2000/svg" version="1.1">
 <metadata>
  <rdf:RDF xmlns:dc="http://purl.org/dc/elements/1.1/" xmlns:cc="http://creativecommons.org/ns#" xmlns:rdf="http://www.w3.org/1999/02/22-rdf-syntax-ns#">
   <cc:Work>
    <dc:type rdf:resource="http://purl.org/dc/dcmitype/StillImage"/>
    <dc:date>2025-07-27T12:29:39.598747</dc:date>
    <dc:format>image/svg+xml</dc:format>
    <dc:creator>
     <cc:Agent>
      <dc:title>Matplotlib v3.10.3, https://matplotlib.org/</dc:title>
     </cc:Agent>
    </dc:creator>
   </cc:Work>
  </rdf:RDF>
 </metadata>
 <defs>
  <style type="text/css">*{stroke-linejoin: round; stroke-linecap: butt}</style>
 </defs>
 <g id="figure_1">
  <g id="patch_1">
   <path d="M 0 503.394375 
L 728.178125 503.394375 
L 728.178125 0 
L 0 0 
z
" style="fill: transparent"/>
  </g>
  <g id="axes_1">
   <g id="patch_2">
    <path d="M 51.378125 465.838125 
L 720.978125 465.838125 
L 720.978125 22.318125 
L 51.378125 22.318125 
z
" style="fill: transparent"/>
   </g>
   <g id="PathCollection_1">
    <path d="M 690.541761 46.013659 
C 691.479396 46.013659 692.378754 45.641133 693.041761 44.978125 
C 693.704769 44.315117 694.077295 43.41576 694.077295 42.478125 
C 694.077295 41.54049 693.704769 40.641133 693.041761 39.978125 
C 692.378754 39.315117 691.479396 38.942591 690.541761 38.942591 
C 689.604127 38.942591 688.704769 39.315117 688.041761 39.978125 
C 687.378754 40.641133 687.006227 41.54049 687.006227 42.478125 
C 687.006227 43.41576 687.378754 44.315117 688.041761 44.978125 
C 688.704769 45.641133 689.604127 46.013659 690.541761 46.013659 
z
" clip-path="url(#p3ee54cd3e6)" style="fill: #1f77b4; fill-opacity: 0.7; stroke: transparent; stroke-opacity: 0.7; stroke-width: 0.5"/>
    <path d="M 614.450852 62.982392 
C 615.48225 62.982392 616.471544 62.572613 617.200852 61.843305 
C 617.930161 61.113996 618.33994 60.124703 618.33994 59.093305 
C 618.33994 58.061907 617.930161 57.072613 617.200852 56.343305 
C 616.471544 55.613996 615.48225 55.204217 614.450852 55.204217 
C 613.419454 55.204217 612.430161 55.613996 611.700852 56.343305 
C 610.971544 57.072613 610.561765 58.061907 610.561765 59.093305 
C 610.561765 60.124703 610.971544 61.113996 611.700852 61.843305 
C 612.430161 62.572613 613.419454 62.982392 614.450852 62.982392 
z
" clip-path="url(#p3ee54cd3e6)" style="fill: #1f77b4; fill-opacity: 0.7; stroke: transparent; stroke-opacity: 0.7; stroke-width: 0.5"/>
    <path d="M 538.359943 184.270088 
C 539.527289 184.270088 540.64698 183.806297 541.472418 182.980859 
C 542.297856 182.155421 542.761647 181.035729 542.761647 179.868384 
C 542.761647 178.701038 542.297856 177.581347 541.472418 176.755909 
C 540.64698 175.930471 539.527289 175.466679 538.359943 175.466679 
C 537.192598 175.466679 536.072906 175.930471 535.247468 176.755909 
C 534.42203 177.581347 533.958239 178.701038 533.958239 179.868384 
C 533.958239 181.035729 534.42203 182.155421 535.247468 182.980859 
C 536.072906 183.806297 537.192598 184.270088 538.359943 184.270088 
z
" clip-path="url(#p3ee54cd3e6)" style="fill: #1f77b4; fill-opacity: 0.7; stroke: transparent; stroke-opacity: 0.7; stroke-width: 0.5"/>
    <path d="M 462.269034 128.109778 
C 463.462448 128.109778 464.607144 127.63563 465.451015 126.791759 
C 466.294886 125.947888 466.769034 124.803192 466.769034 123.609778 
C 466.769034 122.416364 466.294886 121.271669 465.451015 120.427798 
C 464.607144 119.583927 463.462448 119.109778 462.269034 119.109778 
C 461.07562 119.109778 459.930925 119.583927 459.087054 120.427798 
C 458.243182 121.271669 457.769034 122.416364 457.769034 123.609778 
C 457.769034 124.803192 458.243182 125.947888 459.087054 126.791759 
C 459.930925 127.63563 461.07562 128.109778 462.269034 128.109778 
z
" clip-path="url(#p3ee54cd3e6)" style="fill: #1f77b4; fill-opacity: 0.7; stroke: transparent; stroke-opacity: 0.7; stroke-width: 0.5"/>
    <path d="M 386.178125 178.598413 
C 387.698713 178.598413 389.157226 177.994277 390.232444 176.919059 
C 391.307662 175.843841 391.911797 174.385328 391.911797 172.864741 
C 391.911797 171.344153 391.307662 169.88564 390.232444 168.810422 
C 389.157226 167.735204 387.698713 167.131068 386.178125 167.131068 
C 384.657537 167.131068 383.199024 167.735204 382.123806 168.810422 
C 381.048588 169.88564 380.444453 171.344153 380.444453 172.864741 
C 380.444453 174.385328 381.048588 175.843841 382.123806 176.919059 
C 383.199024 177.994277 384.657537 178.598413 386.178125 178.598413 
z
" clip-path="url(#p3ee54cd3e6)" style="fill: #1f77b4; fill-opacity: 0.7; stroke: transparent; stroke-opacity: 0.7; stroke-width: 0.5"/>
    <path d="M 310.087216 170.82556 
C 312.175427 170.82556 314.178392 169.995905 315.65498 168.519317 
C 317.131569 167.042729 317.961224 165.039764 317.961224 162.951553 
C 317.961224 160.863341 317.131569 158.860377 315.65498 157.383788 
C 314.178392 155.9072 312.175427 155.077545 310.087216 155.077545 
C 307.999005 155.077545 305.99604 155.9072 304.519452 157.383788 
C 303.042863 158.860377 302.213208 160.863341 302.213208 162.951553 
C 302.213208 165.039764 303.042863 167.042729 304.519452 168.519317 
C 305.99604 169.995905 307.999005 170.82556 310.087216 170.82556 
z
" clip-path="url(#p3ee54cd3e6)" style="fill: #1f77b4; fill-opacity: 0.7; stroke: transparent; stroke-opacity: 0.7; stroke-width: 0.5"/>
    <path d="M 233.996307 193.122828 
C 237.021541 193.122828 239.923276 191.92089 242.06244 189.781726 
C 244.201603 187.642563 245.403541 184.740827 245.403541 181.715593 
C 245.403541 178.690359 244.201603 175.788624 242.06244 173.649461 
C 239.923276 171.510297 237.021541 170.308359 233.996307 170.308359 
C 230.971073 170.308359 228.069337 171.510297 225.930174 173.649461 
C 223.79101 175.788624 222.589072 178.690359 222.589072 181.715593 
C 222.589072 184.740827 223.79101 187.642563 225.930174 189.781726 
C 228.069337 191.92089 230.971073 193.122828 233.996307 193.122828 
z
" clip-path="url(#p3ee54cd3e6)" style="fill: #1f77b4; fill-opacity: 0.7; stroke: transparent; stroke-opacity: 0.7; stroke-width: 0.5"/>
    <path d="M 157.905398 233.698049 
C 161.869053 233.698049 165.670901 232.123272 168.473628 229.320544 
C 171.276356 226.517817 172.851133 222.715969 172.851133 218.752314 
C 172.851133 214.788658 171.276356 210.98681 168.473628 208.184083 
C 165.670901 205.381355 161.869053 203.806578 157.905398 203.806578 
C 153.941742 203.806578 150.139895 205.381355 147.337167 208.184083 
C 144.534439 210.98681 142.959663 214.788658 142.959663 218.752314 
C 142.959663 222.715969 144.534439 226.517817 147.337167 229.320544 
C 150.139895 232.123272 153.941742 233.698049 157.905398 233.698049 
z
" clip-path="url(#p3ee54cd3e6)" style="fill: #1f77b4; fill-opacity: 0.7; stroke: transparent; stroke-opacity: 0.7; stroke-width: 0.5"/>
    <path d="M 81.814489 308.557265 
C 86.772439 308.557265 91.527992 306.587451 95.033793 303.08165 
C 98.539593 299.57585 100.509408 294.820297 100.509408 289.862346 
C 100.509408 284.904396 98.539593 280.148842 95.033793 276.643042 
C 91.527992 273.137242 86.772439 271.167427 81.814489 271.167427 
C 76.856538 271.167427 72.100985 273.137242 68.595185 276.643042 
C 65.089384 280.148842 63.11957 284.904396 63.11957 289.862346 
C 63.11957 294.820297 65.089384 299.57585 68.595185 303.08165 
C 72.100985 306.587451 76.856538 308.557265 81.814489 308.557265 
z
" clip-path="url(#p3ee54cd3e6)" style="fill: #1f77b4; fill-opacity: 0.7; stroke: transparent; stroke-opacity: 0.7; stroke-width: 0.5"/>
   </g>
   <g id="PathCollection_2">
    <path d="M 690.541761 129.027116 
C 691.390826 129.027116 692.205229 128.689779 692.805608 128.0894 
C 693.405987 127.489021 693.743323 126.674618 693.743323 125.825553 
C 693.743323 124.976489 693.405987 124.162086 692.805608 123.561707 
C 692.205229 122.961328 691.390826 122.623991 690.541761 122.623991 
C 689.692697 122.623991 688.878294 122.961328 688.277915 123.561707 
C 687.677536 124.162086 687.340199 124.976489 687.340199 125.825553 
C 687.340199 126.674618 687.677536 127.489021 688.277915 128.0894 
C 688.878294 128.689779 689.692697 129.027116 690.541761 129.027116 
z
" clip-path="url(#p3ee54cd3e6)" style="fill: #ff7f0e; fill-opacity: 0.7; stroke: transparent; stroke-opacity: 0.7; stroke-width: 0.5"/>
    <path d="M 614.450852 152.264422 
C 615.676969 152.264422 616.853031 151.777281 617.720026 150.910286 
C 618.587022 150.043291 619.074163 148.867228 619.074163 147.641112 
C 619.074163 146.414995 618.587022 145.238933 617.720026 144.371937 
C 616.853031 143.504942 615.676969 143.017801 614.450852 143.017801 
C 613.224736 143.017801 612.048673 143.504942 611.181678 144.371937 
C 610.314683 145.238933 609.827542 146.414995 609.827542 147.641112 
C 609.827542 148.867228 610.314683 150.043291 611.181678 150.910286 
C 612.048673 151.777281 613.224736 152.264422 614.450852 152.264422 
z
" clip-path="url(#p3ee54cd3e6)" style="fill: #ff7f0e; fill-opacity: 0.7; stroke: transparent; stroke-opacity: 0.7; stroke-width: 0.5"/>
    <path d="M 538.359943 172.157867 
C 540.366569 172.157867 542.291278 171.360626 543.710177 169.941728 
C 545.129075 168.522829 545.926316 166.598119 545.926316 164.591494 
C 545.926316 162.584868 545.129075 160.660159 543.710177 159.24126 
C 542.291278 157.822362 540.366569 157.025121 538.359943 157.025121 
C 536.353318 157.025121 534.428608 157.822362 533.00971 159.24126 
C 531.590811 160.660159 530.79357 162.584868 530.79357 164.591494 
C 530.79357 166.598119 531.590811 168.522829 533.00971 169.941728 
C 534.428608 171.360626 536.353318 172.157867 538.359943 172.157867 
z
" clip-path="url(#p3ee54cd3e6)" style="fill: #ff7f0e; fill-opacity: 0.7; stroke: transparent; stroke-opacity: 0.7; stroke-width: 0.5"/>
    <path d="M 462.269034 218.178563 
C 465.253306 218.178563 468.115751 216.992899 470.225949 214.882701 
C 472.336148 212.772502 473.521812 209.910057 473.521812 206.925785 
C 473.521812 203.941514 472.336148 201.079069 470.225949 198.96887 
C 468.115751 196.858672 465.253306 195.673008 462.269034 195.673008 
C 459.284763 195.673008 456.422317 196.858672 454.312119 198.96887 
C 452.20192 201.079069 451.016257 203.941514 451.016257 206.925785 
C 451.016257 209.910057 452.20192 212.772502 454.312119 214.882701 
C 456.422317 216.992899 459.284763 218.178563 462.269034 218.178563 
z
" clip-path="url(#p3ee54cd3e6)" style="fill: #ff7f0e; fill-opacity: 0.7; stroke: transparent; stroke-opacity: 0.7; stroke-width: 0.5"/>
    <path d="M 386.178125 247.691117 
C 390.337673 247.691117 394.327417 246.038511 397.268662 243.097266 
C 400.209906 240.156022 401.862512 236.166278 401.862512 232.00673 
C 401.862512 227.847182 400.209906 223.857438 397.268662 220.916193 
C 394.327417 217.974949 390.337673 216.322343 386.178125 216.322343 
C 382.018577 216.322343 378.028833 217.974949 375.087588 220.916193 
C 372.146344 223.857438 370.493738 227.847182 370.493738 232.00673 
C 370.493738 236.166278 372.146344 240.156022 375.087588 243.097266 
C 378.028833 246.038511 382.018577 247.691117 386.178125 247.691117 
z
" clip-path="url(#p3ee54cd3e6)" style="fill: #ff7f0e; fill-opacity: 0.7; stroke: transparent; stroke-opacity: 0.7; stroke-width: 0.5"/>
    <path d="M 310.087216 304.82973 
C 315.143492 304.82973 319.993357 302.820851 323.568685 299.245523 
C 327.144012 295.670196 329.152892 290.820331 329.152892 285.764054 
C 329.152892 280.707778 327.144012 275.857913 323.568685 272.282586 
C 319.993357 268.707258 315.143492 266.698379 310.087216 266.698379 
C 305.03094 266.698379 300.181074 268.707258 296.605747 272.282586 
C 293.03042 275.857913 291.02154 280.707778 291.02154 285.764054 
C 291.02154 290.820331 293.03042 295.670196 296.605747 299.245523 
C 300.181074 302.820851 305.03094 304.82973 310.087216 304.82973 
z
" clip-path="url(#p3ee54cd3e6)" style="fill: #ff7f0e; fill-opacity: 0.7; stroke: transparent; stroke-opacity: 0.7; stroke-width: 0.5"/>
    <path d="M 233.996307 408.95609 
C 239.472446 408.95609 244.725034 406.780397 248.597249 402.908182 
C 252.469464 399.035967 254.645157 393.78338 254.645157 388.307241 
C 254.645157 382.831102 252.469464 377.578514 248.597249 373.706299 
C 244.725034 369.834084 239.472446 367.658391 233.996307 367.658391 
C 228.520168 367.658391 223.26758 369.834084 219.395365 373.706299 
C 215.52315 377.578514 213.347457 382.831102 213.347457 388.307241 
C 213.347457 393.78338 215.52315 399.035967 219.395365 402.908182 
C 223.26758 406.780397 228.520168 408.95609 233.996307 408.95609 
z
" clip-path="url(#p3ee54cd3e6)" style="fill: #ff7f0e; fill-opacity: 0.7; stroke: transparent; stroke-opacity: 0.7; stroke-width: 0.5"/>
    <path d="M 157.905398 396.112906 
C 163.915043 396.112906 169.679357 393.725248 173.928818 389.475788 
C 178.178279 385.226327 180.565936 379.462012 180.565936 373.452367 
C 180.565936 367.442722 178.178279 361.678408 173.928818 357.428947 
C 169.679357 353.179486 163.915043 350.791829 157.905398 350.791829 
C 151.895753 350.791829 146.131438 353.179486 141.881977 357.428947 
C 137.632517 361.678408 135.244859 367.442722 135.244859 373.452367 
C 135.244859 379.462012 137.632517 385.226327 141.881977 389.475788 
C 146.131438 393.725248 151.895753 396.112906 157.905398 396.112906 
z
" clip-path="url(#p3ee54cd3e6)" style="fill: #ff7f0e; fill-opacity: 0.7; stroke: transparent; stroke-opacity: 0.7; stroke-width: 0.5"/>
    <path d="M 81.814489 470.590471 
C 88.42132 470.590471 94.758442 467.965549 99.430178 463.293814 
C 104.101913 458.622079 106.726835 452.284956 106.726835 445.678125 
C 106.726835 439.071294 104.101913 432.734171 99.430178 428.062436 
C 94.758442 423.390701 88.42132 420.765779 81.814489 420.765779 
C 75.207657 420.765779 68.870535 423.390701 64.1988 428.062436 
C 59.527064 432.734171 56.902142 439.071294 56.902142 445.678125 
C 56.902142 452.284956 59.527064 458.622079 64.1988 463.293814 
C 68.870535 467.965549 75.207657 470.590471 81.814489 470.590471 
z
" clip-path="url(#p3ee54cd3e6)" style="fill: #ff7f0e; fill-opacity: 0.7; stroke: transparent; stroke-opacity: 0.7; stroke-width: 0.5"/>
   </g>
   <g id="PathCollection_3"/>
   <g id="PathCollection_4"/>
   <g id="PathCollection_5"/>
   <g id="matplotlib.axis_1">
    <g id="xtick_1">
     <g id="line2d_1">
      <path d="M 81.814489 465.838125 
L 81.814489 22.318125 
" clip-path="url(#p3ee54cd3e6)" style="fill: none; stroke-dasharray: 1.85,0.8; stroke-dashoffset: 0; stroke: #b0b0b0; stroke-width: 0.5"/>
     </g>
     <g id="line2d_2">
      <defs>
       <path id="m76d5d45f49" d="M 0 0 
L 0 3.5 
" style="stroke: #FFAA00; stroke-width: 0.8"/>
      </defs>
      <g>
       <use xlink:href="#m76d5d45f49" x="81.814489" y="465.838125" style="stroke: #FFAA00; stroke-width: 0.8"/>
      </g>
     </g>
     <g id="text_1" fill="#FFAA00">
      <!-- −9 -->
      <g transform="translate(74.443395 480.436562) scale(0.1 -0.1)">
       <defs>
        <path id="DejaVuSans-2212" d="M 678 2272 
L 4684 2272 
L 4684 1741 
L 678 1741 
L 678 2272 
z
" transform="scale(0.015625)"/>
        <path id="DejaVuSans-39" d="M 703 97 
L 703 672 
Q 941 559 1184 500 
Q 1428 441 1663 441 
Q 2288 441 2617 861 
Q 2947 1281 2994 2138 
Q 2813 1869 2534 1725 
Q 2256 1581 1919 1581 
Q 1219 1581 811 2004 
Q 403 2428 403 3163 
Q 403 3881 828 4315 
Q 1253 4750 1959 4750 
Q 2769 4750 3195 4129 
Q 3622 3509 3622 2328 
Q 3622 1225 3098 567 
Q 2575 -91 1691 -91 
Q 1453 -91 1209 -44 
Q 966 3 703 97 
z
M 1959 2075 
Q 2384 2075 2632 2365 
Q 2881 2656 2881 3163 
Q 2881 3666 2632 3958 
Q 2384 4250 1959 4250 
Q 1534 4250 1286 3958 
Q 1038 3666 1038 3163 
Q 1038 2656 1286 2365 
Q 1534 2075 1959 2075 
z
" transform="scale(0.015625)"/>
       </defs>
       <use xlink:href="#DejaVuSans-2212"/>
       <use xlink:href="#DejaVuSans-39" transform="translate(83.789062 0)"/>
      </g>
     </g>
    </g>
    <g id="xtick_2">
     <g id="line2d_3">
      <path d="M 157.905398 465.838125 
L 157.905398 22.318125 
" clip-path="url(#p3ee54cd3e6)" style="fill: none; stroke-dasharray: 1.85,0.8; stroke-dashoffset: 0; stroke: #b0b0b0; stroke-width: 0.5"/>
     </g>
     <g id="line2d_4">
      <g>
       <use xlink:href="#m76d5d45f49" x="157.905398" y="465.838125" style="stroke: #FFAA00; stroke-width: 0.8"/>
      </g>
     </g>
     <g id="text_2" fill="#FFAA00">
      <!-- −8 -->
      <g transform="translate(150.534304 480.436562) scale(0.1 -0.1)">
       <defs>
        <path id="DejaVuSans-38" d="M 2034 2216 
Q 1584 2216 1326 1975 
Q 1069 1734 1069 1313 
Q 1069 891 1326 650 
Q 1584 409 2034 409 
Q 2484 409 2743 651 
Q 3003 894 3003 1313 
Q 3003 1734 2745 1975 
Q 2488 2216 2034 2216 
z
M 1403 2484 
Q 997 2584 770 2862 
Q 544 3141 544 3541 
Q 544 4100 942 4425 
Q 1341 4750 2034 4750 
Q 2731 4750 3128 4425 
Q 3525 4100 3525 3541 
Q 3525 3141 3298 2862 
Q 3072 2584 2669 2484 
Q 3125 2378 3379 2068 
Q 3634 1759 3634 1313 
Q 3634 634 3220 271 
Q 2806 -91 2034 -91 
Q 1263 -91 848 271 
Q 434 634 434 1313 
Q 434 1759 690 2068 
Q 947 2378 1403 2484 
z
M 1172 3481 
Q 1172 3119 1398 2916 
Q 1625 2713 2034 2713 
Q 2441 2713 2670 2916 
Q 2900 3119 2900 3481 
Q 2900 3844 2670 4047 
Q 2441 4250 2034 4250 
Q 1625 4250 1398 4047 
Q 1172 3844 1172 3481 
z
" transform="scale(0.015625)"/>
       </defs>
       <use xlink:href="#DejaVuSans-2212"/>
       <use xlink:href="#DejaVuSans-38" transform="translate(83.789062 0)"/>
      </g>
     </g>
    </g>
    <g id="xtick_3">
     <g id="line2d_5">
      <path d="M 233.996307 465.838125 
L 233.996307 22.318125 
" clip-path="url(#p3ee54cd3e6)" style="fill: none; stroke-dasharray: 1.85,0.8; stroke-dashoffset: 0; stroke: #b0b0b0; stroke-width: 0.5"/>
     </g>
     <g id="line2d_6">
      <g>
       <use xlink:href="#m76d5d45f49" x="233.996307" y="465.838125" style="stroke: #FFAA00; stroke-width: 0.8"/>
      </g>
     </g>
     <g id="text_3" fill="#FFAA00">
      <!-- −7 -->
      <g transform="translate(226.625213 480.436562) scale(0.1 -0.1)">
       <defs>
        <path id="DejaVuSans-37" d="M 525 4666 
L 3525 4666 
L 3525 4397 
L 1831 0 
L 1172 0 
L 2766 4134 
L 525 4134 
L 525 4666 
z
" transform="scale(0.015625)"/>
       </defs>
       <use xlink:href="#DejaVuSans-2212"/>
       <use xlink:href="#DejaVuSans-37" transform="translate(83.789062 0)"/>
      </g>
     </g>
    </g>
    <g id="xtick_4">
     <g id="line2d_7">
      <path d="M 310.087216 465.838125 
L 310.087216 22.318125 
" clip-path="url(#p3ee54cd3e6)" style="fill: none; stroke-dasharray: 1.85,0.8; stroke-dashoffset: 0; stroke: #b0b0b0; stroke-width: 0.5"/>
     </g>
     <g id="line2d_8">
      <g>
       <use xlink:href="#m76d5d45f49" x="310.087216" y="465.838125" style="stroke: #FFAA00; stroke-width: 0.8"/>
      </g>
     </g>
     <g id="text_4" fill="#FFAA00">
      <!-- −6 -->
      <g transform="translate(302.716122 480.436562) scale(0.1 -0.1)">
       <defs>
        <path id="DejaVuSans-36" d="M 2113 2584 
Q 1688 2584 1439 2293 
Q 1191 2003 1191 1497 
Q 1191 994 1439 701 
Q 1688 409 2113 409 
Q 2538 409 2786 701 
Q 3034 994 3034 1497 
Q 3034 2003 2786 2293 
Q 2538 2584 2113 2584 
z
M 3366 4563 
L 3366 3988 
Q 3128 4100 2886 4159 
Q 2644 4219 2406 4219 
Q 1781 4219 1451 3797 
Q 1122 3375 1075 2522 
Q 1259 2794 1537 2939 
Q 1816 3084 2150 3084 
Q 2853 3084 3261 2657 
Q 3669 2231 3669 1497 
Q 3669 778 3244 343 
Q 2819 -91 2113 -91 
Q 1303 -91 875 529 
Q 447 1150 447 2328 
Q 447 3434 972 4092 
Q 1497 4750 2381 4750 
Q 2619 4750 2861 4703 
Q 3103 4656 3366 4563 
z
" transform="scale(0.015625)"/>
       </defs>
       <use xlink:href="#DejaVuSans-2212"/>
       <use xlink:href="#DejaVuSans-36" transform="translate(83.789062 0)"/>
      </g>
     </g>
    </g>
    <g id="xtick_5">
     <g id="line2d_9">
      <path d="M 386.178125 465.838125 
L 386.178125 22.318125 
" clip-path="url(#p3ee54cd3e6)" style="fill: none; stroke-dasharray: 1.85,0.8; stroke-dashoffset: 0; stroke: #b0b0b0; stroke-width: 0.5"/>
     </g>
     <g id="line2d_10">
      <g>
       <use xlink:href="#m76d5d45f49" x="386.178125" y="465.838125" style="stroke: #FFAA00; stroke-width: 0.8"/>
      </g>
     </g>
     <g id="text_5" fill="#FFAA00">
      <!-- −5 -->
      <g transform="translate(378.807031 480.436562) scale(0.1 -0.1)">
       <defs>
        <path id="DejaVuSans-35" d="M 691 4666 
L 3169 4666 
L 3169 4134 
L 1269 4134 
L 1269 2991 
Q 1406 3038 1543 3061 
Q 1681 3084 1819 3084 
Q 2600 3084 3056 2656 
Q 3513 2228 3513 1497 
Q 3513 744 3044 326 
Q 2575 -91 1722 -91 
Q 1428 -91 1123 -41 
Q 819 9 494 109 
L 494 744 
Q 775 591 1075 516 
Q 1375 441 1709 441 
Q 2250 441 2565 725 
Q 2881 1009 2881 1497 
Q 2881 1984 2565 2268 
Q 2250 2553 1709 2553 
Q 1456 2553 1204 2497 
Q 953 2441 691 2322 
L 691 4666 
z
" transform="scale(0.015625)"/>
       </defs>
       <use xlink:href="#DejaVuSans-2212"/>
       <use xlink:href="#DejaVuSans-35" transform="translate(83.789062 0)"/>
      </g>
     </g>
    </g>
    <g id="xtick_6">
     <g id="line2d_11">
      <path d="M 462.269034 465.838125 
L 462.269034 22.318125 
" clip-path="url(#p3ee54cd3e6)" style="fill: none; stroke-dasharray: 1.85,0.8; stroke-dashoffset: 0; stroke: #b0b0b0; stroke-width: 0.5"/>
     </g>
     <g id="line2d_12">
      <g>
       <use xlink:href="#m76d5d45f49" x="462.269034" y="465.838125" style="stroke: #FFAA00; stroke-width: 0.8"/>
      </g>
     </g>
     <g id="text_6" fill="#FFAA00">
      <!-- −4 -->
      <g transform="translate(454.89794 480.436562) scale(0.1 -0.1)">
       <defs>
        <path id="DejaVuSans-34" d="M 2419 4116 
L 825 1625 
L 2419 1625 
L 2419 4116 
z
M 2253 4666 
L 3047 4666 
L 3047 1625 
L 3713 1625 
L 3713 1100 
L 3047 1100 
L 3047 0 
L 2419 0 
L 2419 1100 
L 313 1100 
L 313 1709 
L 2253 4666 
z
" transform="scale(0.015625)"/>
       </defs>
       <use xlink:href="#DejaVuSans-2212"/>
       <use xlink:href="#DejaVuSans-34" transform="translate(83.789062 0)"/>
      </g>
     </g>
    </g>
    <g id="xtick_7">
     <g id="line2d_13">
      <path d="M 538.359943 465.838125 
L 538.359943 22.318125 
" clip-path="url(#p3ee54cd3e6)" style="fill: none; stroke-dasharray: 1.85,0.8; stroke-dashoffset: 0; stroke: #b0b0b0; stroke-width: 0.5"/>
     </g>
     <g id="line2d_14">
      <g>
       <use xlink:href="#m76d5d45f49" x="538.359943" y="465.838125" style="stroke: #FFAA00; stroke-width: 0.8"/>
      </g>
     </g>
     <g id="text_7" fill="#FFAA00">
      <!-- −3 -->
      <g transform="translate(530.988849 480.436562) scale(0.1 -0.1)">
       <defs>
        <path id="DejaVuSans-33" d="M 2597 2516 
Q 3050 2419 3304 2112 
Q 3559 1806 3559 1356 
Q 3559 666 3084 287 
Q 2609 -91 1734 -91 
Q 1441 -91 1130 -33 
Q 819 25 488 141 
L 488 750 
Q 750 597 1062 519 
Q 1375 441 1716 441 
Q 2309 441 2620 675 
Q 2931 909 2931 1356 
Q 2931 1769 2642 2001 
Q 2353 2234 1838 2234 
L 1294 2234 
L 1294 2753 
L 1863 2753 
Q 2328 2753 2575 2939 
Q 2822 3125 2822 3475 
Q 2822 3834 2567 4026 
Q 2313 4219 1838 4219 
Q 1578 4219 1281 4162 
Q 984 4106 628 3988 
L 628 4550 
Q 988 4650 1302 4700 
Q 1616 4750 1894 4750 
Q 2613 4750 3031 4423 
Q 3450 4097 3450 3541 
Q 3450 3153 3228 2886 
Q 3006 2619 2597 2516 
z
" transform="scale(0.015625)"/>
       </defs>
       <use xlink:href="#DejaVuSans-2212"/>
       <use xlink:href="#DejaVuSans-33" transform="translate(83.789062 0)"/>
      </g>
     </g>
    </g>
    <g id="xtick_8">
     <g id="line2d_15">
      <path d="M 614.450852 465.838125 
L 614.450852 22.318125 
" clip-path="url(#p3ee54cd3e6)" style="fill: none; stroke-dasharray: 1.85,0.8; stroke-dashoffset: 0; stroke: #b0b0b0; stroke-width: 0.5"/>
     </g>
     <g id="line2d_16">
      <g>
       <use xlink:href="#m76d5d45f49" x="614.450852" y="465.838125" style="stroke: #FFAA00; stroke-width: 0.8"/>
      </g>
     </g>
     <g id="text_8" fill="#FFAA00">
      <!-- −2 -->
      <g transform="translate(607.079759 480.436562) scale(0.1 -0.1)">
       <defs>
        <path id="DejaVuSans-32" d="M 1228 531 
L 3431 531 
L 3431 0 
L 469 0 
L 469 531 
Q 828 903 1448 1529 
Q 2069 2156 2228 2338 
Q 2531 2678 2651 2914 
Q 2772 3150 2772 3378 
Q 2772 3750 2511 3984 
Q 2250 4219 1831 4219 
Q 1534 4219 1204 4116 
Q 875 4013 500 3803 
L 500 4441 
Q 881 4594 1212 4672 
Q 1544 4750 1819 4750 
Q 2544 4750 2975 4387 
Q 3406 4025 3406 3419 
Q 3406 3131 3298 2873 
Q 3191 2616 2906 2266 
Q 2828 2175 2409 1742 
Q 1991 1309 1228 531 
z
" transform="scale(0.015625)"/>
       </defs>
       <use xlink:href="#DejaVuSans-2212"/>
       <use xlink:href="#DejaVuSans-32" transform="translate(83.789062 0)"/>
      </g>
     </g>
    </g>
    <g id="xtick_9">
     <g id="line2d_17">
      <path d="M 690.541761 465.838125 
L 690.541761 22.318125 
" clip-path="url(#p3ee54cd3e6)" style="fill: none; stroke-dasharray: 1.85,0.8; stroke-dashoffset: 0; stroke: #b0b0b0; stroke-width: 0.5"/>
     </g>
     <g id="line2d_18">
      <g>
       <use xlink:href="#m76d5d45f49" x="690.541761" y="465.838125" style="stroke: #FFAA00; stroke-width: 0.8"/>
      </g>
     </g>
     <g id="text_9" fill="#FFAA00">
      <!-- −1 -->
      <g transform="translate(683.170668 480.436562) scale(0.1 -0.1)">
       <defs>
        <path id="DejaVuSans-31" d="M 794 531 
L 1825 531 
L 1825 4091 
L 703 3866 
L 703 4441 
L 1819 4666 
L 2450 4666 
L 2450 531 
L 3481 531 
L 3481 0 
L 794 0 
L 794 531 
z
" transform="scale(0.015625)"/>
       </defs>
       <use xlink:href="#DejaVuSans-2212"/>
       <use xlink:href="#DejaVuSans-31" transform="translate(83.789062 0)"/>
      </g>
     </g>
    </g>
    <g id="text_10" fill="#FFAA00">
     <!-- Log10(Tolerance) -->
     <g transform="translate(343.139063 494.114687) scale(0.1 -0.1)">
      <defs>
       <path id="DejaVuSans-4c" d="M 628 4666 
L 1259 4666 
L 1259 531 
L 3531 531 
L 3531 0 
L 628 0 
L 628 4666 
z
" transform="scale(0.015625)"/>
       <path id="DejaVuSans-6f" d="M 1959 3097 
Q 1497 3097 1228 2736 
Q 959 2375 959 1747 
Q 959 1119 1226 758 
Q 1494 397 1959 397 
Q 2419 397 2687 759 
Q 2956 1122 2956 1747 
Q 2956 2369 2687 2733 
Q 2419 3097 1959 3097 
z
M 1959 3584 
Q 2709 3584 3137 3096 
Q 3566 2609 3566 1747 
Q 3566 888 3137 398 
Q 2709 -91 1959 -91 
Q 1206 -91 779 398 
Q 353 888 353 1747 
Q 353 2609 779 3096 
Q 1206 3584 1959 3584 
z
" transform="scale(0.015625)"/>
       <path id="DejaVuSans-67" d="M 2906 1791 
Q 2906 2416 2648 2759 
Q 2391 3103 1925 3103 
Q 1463 3103 1205 2759 
Q 947 2416 947 1791 
Q 947 1169 1205 825 
Q 1463 481 1925 481 
Q 2391 481 2648 825 
Q 2906 1169 2906 1791 
z
M 3481 434 
Q 3481 -459 3084 -895 
Q 2688 -1331 1869 -1331 
Q 1566 -1331 1297 -1286 
Q 1028 -1241 775 -1147 
L 775 -588 
Q 1028 -725 1275 -790 
Q 1522 -856 1778 -856 
Q 2344 -856 2625 -561 
Q 2906 -266 2906 331 
L 2906 616 
Q 2728 306 2450 153 
Q 2172 0 1784 0 
Q 1141 0 747 490 
Q 353 981 353 1791 
Q 353 2603 747 3093 
Q 1141 3584 1784 3584 
Q 2172 3584 2450 3431 
Q 2728 3278 2906 2969 
L 2906 3500 
L 3481 3500 
L 3481 434 
z
" transform="scale(0.015625)"/>
       <path id="DejaVuSans-30" d="M 2034 4250 
Q 1547 4250 1301 3770 
Q 1056 3291 1056 2328 
Q 1056 1369 1301 889 
Q 1547 409 2034 409 
Q 2525 409 2770 889 
Q 3016 1369 3016 2328 
Q 3016 3291 2770 3770 
Q 2525 4250 2034 4250 
z
M 2034 4750 
Q 2819 4750 3233 4129 
Q 3647 3509 3647 2328 
Q 3647 1150 3233 529 
Q 2819 -91 2034 -91 
Q 1250 -91 836 529 
Q 422 1150 422 2328 
Q 422 3509 836 4129 
Q 1250 4750 2034 4750 
z
" transform="scale(0.015625)"/>
       <path id="DejaVuSans-28" d="M 1984 4856 
Q 1566 4138 1362 3434 
Q 1159 2731 1159 2009 
Q 1159 1288 1364 580 
Q 1569 -128 1984 -844 
L 1484 -844 
Q 1016 -109 783 600 
Q 550 1309 550 2009 
Q 550 2706 781 3412 
Q 1013 4119 1484 4856 
L 1984 4856 
z
" transform="scale(0.015625)"/>
       <path id="DejaVuSans-54" d="M -19 4666 
L 3928 4666 
L 3928 4134 
L 2272 4134 
L 2272 0 
L 1638 0 
L 1638 4134 
L -19 4134 
L -19 4666 
z
" transform="scale(0.015625)"/>
       <path id="DejaVuSans-6c" d="M 603 4863 
L 1178 4863 
L 1178 0 
L 603 0 
L 603 4863 
z
" transform="scale(0.015625)"/>
       <path id="DejaVuSans-65" d="M 3597 1894 
L 3597 1613 
L 953 1613 
Q 991 1019 1311 708 
Q 1631 397 2203 397 
Q 2534 397 2845 478 
Q 3156 559 3463 722 
L 3463 178 
Q 3153 47 2828 -22 
Q 2503 -91 2169 -91 
Q 1331 -91 842 396 
Q 353 884 353 1716 
Q 353 2575 817 3079 
Q 1281 3584 2069 3584 
Q 2775 3584 3186 3129 
Q 3597 2675 3597 1894 
z
M 3022 2063 
Q 3016 2534 2758 2815 
Q 2500 3097 2075 3097 
Q 1594 3097 1305 2825 
Q 1016 2553 972 2059 
L 3022 2063 
z
" transform="scale(0.015625)"/>
       <path id="DejaVuSans-72" d="M 2631 2963 
Q 2534 3019 2420 3045 
Q 2306 3072 2169 3072 
Q 1681 3072 1420 2755 
Q 1159 2438 1159 1844 
L 1159 0 
L 581 0 
L 581 3500 
L 1159 3500 
L 1159 2956 
Q 1341 3275 1631 3429 
Q 1922 3584 2338 3584 
Q 2397 3584 2469 3576 
Q 2541 3569 2628 3553 
L 2631 2963 
z
" transform="scale(0.015625)"/>
       <path id="DejaVuSans-61" d="M 2194 1759 
Q 1497 1759 1228 1600 
Q 959 1441 959 1056 
Q 959 750 1161 570 
Q 1363 391 1709 391 
Q 2188 391 2477 730 
Q 2766 1069 2766 1631 
L 2766 1759 
L 2194 1759 
z
M 3341 1997 
L 3341 0 
L 2766 0 
L 2766 531 
Q 2569 213 2275 61 
Q 1981 -91 1556 -91 
Q 1019 -91 701 211 
Q 384 513 384 1019 
Q 384 1609 779 1909 
Q 1175 2209 1959 2209 
L 2766 2209 
L 2766 2266 
Q 2766 2663 2505 2880 
Q 2244 3097 1772 3097 
Q 1472 3097 1187 3025 
Q 903 2953 641 2809 
L 641 3341 
Q 956 3463 1253 3523 
Q 1550 3584 1831 3584 
Q 2591 3584 2966 3190 
Q 3341 2797 3341 1997 
z
" transform="scale(0.015625)"/>
       <path id="DejaVuSans-6e" d="M 3513 2113 
L 3513 0 
L 2938 0 
L 2938 2094 
Q 2938 2591 2744 2837 
Q 2550 3084 2163 3084 
Q 1697 3084 1428 2787 
Q 1159 2491 1159 1978 
L 1159 0 
L 581 0 
L 581 3500 
L 1159 3500 
L 1159 2956 
Q 1366 3272 1645 3428 
Q 1925 3584 2291 3584 
Q 2894 3584 3203 3211 
Q 3513 2838 3513 2113 
z
" transform="scale(0.015625)"/>
       <path id="DejaVuSans-63" d="M 3122 3366 
L 3122 2828 
Q 2878 2963 2633 3030 
Q 2388 3097 2138 3097 
Q 1578 3097 1268 2742 
Q 959 2388 959 1747 
Q 959 1106 1268 751 
Q 1578 397 2138 397 
Q 2388 397 2633 464 
Q 2878 531 3122 666 
L 3122 134 
Q 2881 22 2623 -34 
Q 2366 -91 2075 -91 
Q 1284 -91 818 406 
Q 353 903 353 1747 
Q 353 2603 823 3093 
Q 1294 3584 2113 3584 
Q 2378 3584 2631 3529 
Q 2884 3475 3122 3366 
z
" transform="scale(0.015625)"/>
       <path id="DejaVuSans-29" d="M 513 4856 
L 1013 4856 
Q 1481 4119 1714 3412 
Q 1947 2706 1947 2009 
Q 1947 1309 1714 600 
Q 1481 -109 1013 -844 
L 513 -844 
Q 928 -128 1133 580 
Q 1338 1288 1338 2009 
Q 1338 2731 1133 3434 
Q 928 4138 513 4856 
z
" transform="scale(0.015625)"/>
      </defs>
      <use xlink:href="#DejaVuSans-4c"/>
      <use xlink:href="#DejaVuSans-6f" transform="translate(53.962891 0)"/>
      <use xlink:href="#DejaVuSans-67" transform="translate(115.144531 0)"/>
      <use xlink:href="#DejaVuSans-31" transform="translate(178.621094 0)"/>
      <use xlink:href="#DejaVuSans-30" transform="translate(242.244141 0)"/>
      <use xlink:href="#DejaVuSans-28" transform="translate(305.867188 0)"/>
      <use xlink:href="#DejaVuSans-54" transform="translate(344.880859 0)"/>
      <use xlink:href="#DejaVuSans-6f" transform="translate(388.964844 0)"/>
      <use xlink:href="#DejaVuSans-6c" transform="translate(450.146484 0)"/>
      <use xlink:href="#DejaVuSans-65" transform="translate(477.929688 0)"/>
      <use xlink:href="#DejaVuSans-72" transform="translate(539.453125 0)"/>
      <use xlink:href="#DejaVuSans-61" transform="translate(580.566406 0)"/>
      <use xlink:href="#DejaVuSans-6e" transform="translate(641.845703 0)"/>
      <use xlink:href="#DejaVuSans-63" transform="translate(705.224609 0)"/>
      <use xlink:href="#DejaVuSans-65" transform="translate(760.205078 0)"/>
      <use xlink:href="#DejaVuSans-29" transform="translate(821.728516 0)"/>
     </g>
    </g>
   </g>
   <g id="matplotlib.axis_2">
    <g id="ytick_1">
     <g id="line2d_19">
      <path d="M 51.378125 422.963606 
L 720.978125 422.963606 
" clip-path="url(#p3ee54cd3e6)" style="fill: none; stroke-dasharray: 1.85,0.8; stroke-dashoffset: 0; stroke: #b0b0b0; stroke-width: 0.5"/>
     </g>
     <g id="line2d_20">
      <defs>
       <path id="m71bb22f8cf" d="M 0 0 
L -3.5 0 
" style="stroke: #FFAA00; stroke-width: 0.8"/>
      </defs>
      <g>
       <use xlink:href="#m71bb22f8cf" x="51.378125" y="422.963606" style="stroke: #FFAA00; stroke-width: 0.8"/>
      </g>
     </g>
     <g id="text_11" fill="#FFAA00">
      <!-- $\mathdefault{10^{-9}}$ -->
      <g transform="translate(20.878125 426.762824) scale(0.1 -0.1)">
       <use xlink:href="#DejaVuSans-31" transform="translate(0 0.765625)"/>
       <use xlink:href="#DejaVuSans-30" transform="translate(63.623047 0.765625)"/>
       <use xlink:href="#DejaVuSans-2212" transform="translate(128.203125 39.046875) scale(0.7)"/>
       <use xlink:href="#DejaVuSans-39" transform="translate(186.855469 39.046875) scale(0.7)"/>
      </g>
     </g>
    </g>
    <g id="ytick_2">
     <g id="line2d_21">
      <path d="M 51.378125 341.16493 
L 720.978125 341.16493 
" clip-path="url(#p3ee54cd3e6)" style="fill: none; stroke-dasharray: 1.85,0.8; stroke-dashoffset: 0; stroke: #b0b0b0; stroke-width: 0.5"/>
     </g>
     <g id="line2d_22">
      <g>
       <use xlink:href="#m71bb22f8cf" x="51.378125" y="341.16493" style="stroke: #FFAA00; stroke-width: 0.8"/>
      </g>
     </g>
     <g id="text_12" fill="#FFAA00">
      <!-- $\mathdefault{10^{-7}}$ -->
      <g transform="translate(20.878125 344.964149) scale(0.1 -0.1)">
       <use xlink:href="#DejaVuSans-31" transform="translate(0 0.684375)"/>
       <use xlink:href="#DejaVuSans-30" transform="translate(63.623047 0.684375)"/>
       <use xlink:href="#DejaVuSans-2212" transform="translate(128.203125 38.965625) scale(0.7)"/>
       <use xlink:href="#DejaVuSans-37" transform="translate(186.855469 38.965625) scale(0.7)"/>
      </g>
     </g>
    </g>
    <g id="ytick_3">
     <g id="line2d_23">
      <path d="M 51.378125 259.366255 
L 720.978125 259.366255 
" clip-path="url(#p3ee54cd3e6)" style="fill: none; stroke-dasharray: 1.85,0.8; stroke-dashoffset: 0; stroke: #b0b0b0; stroke-width: 0.5"/>
     </g>
     <g id="line2d_24">
      <g>
       <use xlink:href="#m71bb22f8cf" x="51.378125" y="259.366255" style="stroke: #FFAA00; stroke-width: 0.8"/>
      </g>
     </g>
     <g id="text_13" fill="#FFAA00">
      <!-- $\mathdefault{10^{-5}}$ -->
      <g transform="translate(20.878125 263.165474) scale(0.1 -0.1)">
       <use xlink:href="#DejaVuSans-31" transform="translate(0 0.684375)"/>
       <use xlink:href="#DejaVuSans-30" transform="translate(63.623047 0.684375)"/>
       <use xlink:href="#DejaVuSans-2212" transform="translate(128.203125 38.965625) scale(0.7)"/>
       <use xlink:href="#DejaVuSans-35" transform="translate(186.855469 38.965625) scale(0.7)"/>
      </g>
     </g>
    </g>
    <g id="ytick_4">
     <g id="line2d_25">
      <path d="M 51.378125 177.56758 
L 720.978125 177.56758 
" clip-path="url(#p3ee54cd3e6)" style="fill: none; stroke-dasharray: 1.85,0.8; stroke-dashoffset: 0; stroke: #b0b0b0; stroke-width: 0.5"/>
     </g>
     <g id="line2d_26">
      <g>
       <use xlink:href="#m71bb22f8cf" x="51.378125" y="177.56758" style="stroke: #FFAA00; stroke-width: 0.8"/>
      </g>
     </g>
     <g id="text_14" fill="#FFAA00">
      <!-- $\mathdefault{10^{-3}}$ -->
      <g transform="translate(20.878125 181.366799) scale(0.1 -0.1)">
       <use xlink:href="#DejaVuSans-31" transform="translate(0 0.765625)"/>
       <use xlink:href="#DejaVuSans-30" transform="translate(63.623047 0.765625)"/>
       <use xlink:href="#DejaVuSans-2212" transform="translate(128.203125 39.046875) scale(0.7)"/>
       <use xlink:href="#DejaVuSans-33" transform="translate(186.855469 39.046875) scale(0.7)"/>
      </g>
     </g>
    </g>
    <g id="ytick_5">
     <g id="line2d_27">
      <path d="M 51.378125 95.768905 
L 720.978125 95.768905 
" clip-path="url(#p3ee54cd3e6)" style="fill: none; stroke-dasharray: 1.85,0.8; stroke-dashoffset: 0; stroke: #b0b0b0; stroke-width: 0.5"/>
     </g>
     <g id="line2d_28">
      <g>
       <use xlink:href="#m71bb22f8cf" x="51.378125" y="95.768905" style="stroke: #FFAA00; stroke-width: 0.8"/>
      </g>
     </g>
     <g id="text_15" fill="#FFAA00">
      <!-- $\mathdefault{10^{-1}}$ -->
      <g transform="translate(20.878125 99.568124) scale(0.1 -0.1)">
       <use xlink:href="#DejaVuSans-31" transform="translate(0 0.684375)"/>
       <use xlink:href="#DejaVuSans-30" transform="translate(63.623047 0.684375)"/>
       <use xlink:href="#DejaVuSans-2212" transform="translate(128.203125 38.965625) scale(0.7)"/>
       <use xlink:href="#DejaVuSans-31" transform="translate(186.855469 38.965625) scale(0.7)"/>
      </g>
     </g>
    </g>
    <g id="text_16" fill="#FFAA00">
     <!-- Error (m) -->
     <g transform="translate(14.798437 266.624219) rotate(-90) scale(0.1 -0.1)">
      <defs>
       <path id="DejaVuSans-45" d="M 628 4666 
L 3578 4666 
L 3578 4134 
L 1259 4134 
L 1259 2753 
L 3481 2753 
L 3481 2222 
L 1259 2222 
L 1259 531 
L 3634 531 
L 3634 0 
L 628 0 
L 628 4666 
z
" transform="scale(0.015625)"/>
       <path id="DejaVuSans-20" transform="scale(0.015625)"/>
       <path id="DejaVuSans-6d" d="M 3328 2828 
Q 3544 3216 3844 3400 
Q 4144 3584 4550 3584 
Q 5097 3584 5394 3201 
Q 5691 2819 5691 2113 
L 5691 0 
L 5113 0 
L 5113 2094 
Q 5113 2597 4934 2840 
Q 4756 3084 4391 3084 
Q 3944 3084 3684 2787 
Q 3425 2491 3425 1978 
L 3425 0 
L 2847 0 
L 2847 2094 
Q 2847 2600 2669 2842 
Q 2491 3084 2119 3084 
Q 1678 3084 1418 2786 
Q 1159 2488 1159 1978 
L 1159 0 
L 581 0 
L 581 3500 
L 1159 3500 
L 1159 2956 
Q 1356 3278 1631 3431 
Q 1906 3584 2284 3584 
Q 2666 3584 2933 3390 
Q 3200 3197 3328 2828 
z
" transform="scale(0.015625)"/>
      </defs>
      <use xlink:href="#DejaVuSans-45"/>
      <use xlink:href="#DejaVuSans-72" transform="translate(63.183594 0)"/>
      <use xlink:href="#DejaVuSans-72" transform="translate(102.546875 0)"/>
      <use xlink:href="#DejaVuSans-6f" transform="translate(141.410156 0)"/>
      <use xlink:href="#DejaVuSans-72" transform="translate(202.591797 0)"/>
      <use xlink:href="#DejaVuSans-20" transform="translate(243.705078 0)"/>
      <use xlink:href="#DejaVuSans-28" transform="translate(275.492188 0)"/>
      <use xlink:href="#DejaVuSans-6d" transform="translate(314.505859 0)"/>
      <use xlink:href="#DejaVuSans-29" transform="translate(411.917969 0)"/>
     </g>
    </g>
   </g>
   <g id="patch_3">
    <path d="M 51.378125 465.838125 
L 51.378125 22.318125 
" style="fill: none; stroke: #FFAA00; stroke-width: 0.8; stroke-linejoin: miter; stroke-linecap: square"/>
   </g>
   <g id="patch_4">
    <path d="M 720.978125 465.838125 
L 720.978125 22.318125 
" style="fill: none; stroke: #FFAA00; stroke-width: 0.8; stroke-linejoin: miter; stroke-linecap: square"/>
   </g>
   <g id="patch_5">
    <path d="M 51.378125 465.838125 
L 720.978125 465.838125 
" style="fill: none; stroke: #FFAA00; stroke-width: 0.8; stroke-linejoin: miter; stroke-linecap: square"/>
   </g>
   <g id="patch_6">
    <path d="M 51.378125 22.318125 
L 720.978125 22.318125 
" style="fill: none; stroke: #FFAA00; stroke-width: 0.8; stroke-linejoin: miter; stroke-linecap: square"/>
   </g>
   <g id="text_17" fill="#FFAA00">
    <!-- Error vs. Tolerance for LSODA (Point size reflects #/integration steps) -->
    <g transform="translate(178.862188 16.318125) scale(0.12 -0.12)">
     <defs>
      <path id="DejaVuSans-76" d="M 191 3500 
L 800 3500 
L 1894 563 
L 2988 3500 
L 3597 3500 
L 2284 0 
L 1503 0 
L 191 3500 
z
" transform="scale(0.015625)"/>
      <path id="DejaVuSans-73" d="M 2834 3397 
L 2834 2853 
Q 2591 2978 2328 3040 
Q 2066 3103 1784 3103 
Q 1356 3103 1142 2972 
Q 928 2841 928 2578 
Q 928 2378 1081 2264 
Q 1234 2150 1697 2047 
L 1894 2003 
Q 2506 1872 2764 1633 
Q 3022 1394 3022 966 
Q 3022 478 2636 193 
Q 2250 -91 1575 -91 
Q 1294 -91 989 -36 
Q 684 19 347 128 
L 347 722 
Q 666 556 975 473 
Q 1284 391 1588 391 
Q 1994 391 2212 530 
Q 2431 669 2431 922 
Q 2431 1156 2273 1281 
Q 2116 1406 1581 1522 
L 1381 1569 
Q 847 1681 609 1914 
Q 372 2147 372 2553 
Q 372 3047 722 3315 
Q 1072 3584 1716 3584 
Q 2034 3584 2315 3537 
Q 2597 3491 2834 3397 
z
" transform="scale(0.015625)"/>
      <path id="DejaVuSans-2e" d="M 684 794 
L 1344 794 
L 1344 0 
L 684 0 
L 684 794 
z
" transform="scale(0.015625)"/>
      <path id="DejaVuSans-66" d="M 2375 4863 
L 2375 4384 
L 1825 4384 
Q 1516 4384 1395 4259 
Q 1275 4134 1275 3809 
L 1275 3500 
L 2222 3500 
L 2222 3053 
L 1275 3053 
L 1275 0 
L 697 0 
L 697 3053 
L 147 3053 
L 147 3500 
L 697 3500 
L 697 3744 
Q 697 4328 969 4595 
Q 1241 4863 1831 4863 
L 2375 4863 
z
" transform="scale(0.015625)"/>
      <path id="DejaVuSans-53" d="M 3425 4513 
L 3425 3897 
Q 3066 4069 2747 4153 
Q 2428 4238 2131 4238 
Q 1616 4238 1336 4038 
Q 1056 3838 1056 3469 
Q 1056 3159 1242 3001 
Q 1428 2844 1947 2747 
L 2328 2669 
Q 3034 2534 3370 2195 
Q 3706 1856 3706 1288 
Q 3706 609 3251 259 
Q 2797 -91 1919 -91 
Q 1588 -91 1214 -16 
Q 841 59 441 206 
L 441 856 
Q 825 641 1194 531 
Q 1563 422 1919 422 
Q 2459 422 2753 634 
Q 3047 847 3047 1241 
Q 3047 1584 2836 1778 
Q 2625 1972 2144 2069 
L 1759 2144 
Q 1053 2284 737 2584 
Q 422 2884 422 3419 
Q 422 4038 858 4394 
Q 1294 4750 2059 4750 
Q 2388 4750 2728 4690 
Q 3069 4631 3425 4513 
z
" transform="scale(0.015625)"/>
      <path id="DejaVuSans-4f" d="M 2522 4238 
Q 1834 4238 1429 3725 
Q 1025 3213 1025 2328 
Q 1025 1447 1429 934 
Q 1834 422 2522 422 
Q 3209 422 3611 934 
Q 4013 1447 4013 2328 
Q 4013 3213 3611 3725 
Q 3209 4238 2522 4238 
z
M 2522 4750 
Q 3503 4750 4090 4092 
Q 4678 3434 4678 2328 
Q 4678 1225 4090 567 
Q 3503 -91 2522 -91 
Q 1538 -91 948 565 
Q 359 1222 359 2328 
Q 359 3434 948 4092 
Q 1538 4750 2522 4750 
z
" transform="scale(0.015625)"/>
      <path id="DejaVuSans-44" d="M 1259 4147 
L 1259 519 
L 2022 519 
Q 2988 519 3436 956 
Q 3884 1394 3884 2338 
Q 3884 3275 3436 3711 
Q 2988 4147 2022 4147 
L 1259 4147 
z
M 628 4666 
L 1925 4666 
Q 3281 4666 3915 4102 
Q 4550 3538 4550 2338 
Q 4550 1131 3912 565 
Q 3275 0 1925 0 
L 628 0 
L 628 4666 
z
" transform="scale(0.015625)"/>
      <path id="DejaVuSans-41" d="M 2188 4044 
L 1331 1722 
L 3047 1722 
L 2188 4044 
z
M 1831 4666 
L 2547 4666 
L 4325 0 
L 3669 0 
L 3244 1197 
L 1141 1197 
L 716 0 
L 50 0 
L 1831 4666 
z
" transform="scale(0.015625)"/>
      <path id="DejaVuSans-50" d="M 1259 4147 
L 1259 2394 
L 2053 2394 
Q 2494 2394 2734 2622 
Q 2975 2850 2975 3272 
Q 2975 3691 2734 3919 
Q 2494 4147 2053 4147 
L 1259 4147 
z
M 628 4666 
L 2053 4666 
Q 2838 4666 3239 4311 
Q 3641 3956 3641 3272 
Q 3641 2581 3239 2228 
Q 2838 1875 2053 1875 
L 1259 1875 
L 1259 0 
L 628 0 
L 628 4666 
z
" transform="scale(0.015625)"/>
      <path id="DejaVuSans-69" d="M 603 3500 
L 1178 3500 
L 1178 0 
L 603 0 
L 603 3500 
z
M 603 4863 
L 1178 4863 
L 1178 4134 
L 603 4134 
L 603 4863 
z
" transform="scale(0.015625)"/>
      <path id="DejaVuSans-74" d="M 1172 4494 
L 1172 3500 
L 2356 3500 
L 2356 3053 
L 1172 3053 
L 1172 1153 
Q 1172 725 1289 603 
Q 1406 481 1766 481 
L 2356 481 
L 2356 0 
L 1766 0 
Q 1100 0 847 248 
Q 594 497 594 1153 
L 594 3053 
L 172 3053 
L 172 3500 
L 594 3500 
L 594 4494 
L 1172 4494 
z
" transform="scale(0.015625)"/>
      <path id="DejaVuSans-7a" d="M 353 3500 
L 3084 3500 
L 3084 2975 
L 922 459 
L 3084 459 
L 3084 0 
L 275 0 
L 275 525 
L 2438 3041 
L 353 3041 
L 353 3500 
z
" transform="scale(0.015625)"/>
      <path id="DejaVuSans-23" d="M 3272 2816 
L 2363 2816 
L 2100 1772 
L 3016 1772 
L 3272 2816 
z
M 2803 4594 
L 2478 3297 
L 3391 3297 
L 3719 4594 
L 4219 4594 
L 3897 3297 
L 4872 3297 
L 4872 2816 
L 3775 2816 
L 3519 1772 
L 4513 1772 
L 4513 1294 
L 3397 1294 
L 3072 0 
L 2572 0 
L 2894 1294 
L 1978 1294 
L 1656 0 
L 1153 0 
L 1478 1294 
L 494 1294 
L 494 1772 
L 1594 1772 
L 1856 2816 
L 850 2816 
L 850 3297 
L 1978 3297 
L 2297 4594 
L 2803 4594 
z
" transform="scale(0.015625)"/>
      <path id="DejaVuSans-2f" d="M 1625 4666 
L 2156 4666 
L 531 -594 
L 0 -594 
L 1625 4666 
z
" transform="scale(0.015625)"/>
      <path id="DejaVuSans-70" d="M 1159 525 
L 1159 -1331 
L 581 -1331 
L 581 3500 
L 1159 3500 
L 1159 2969 
Q 1341 3281 1617 3432 
Q 1894 3584 2278 3584 
Q 2916 3584 3314 3078 
Q 3713 2572 3713 1747 
Q 3713 922 3314 415 
Q 2916 -91 2278 -91 
Q 1894 -91 1617 61 
Q 1341 213 1159 525 
z
M 3116 1747 
Q 3116 2381 2855 2742 
Q 2594 3103 2138 3103 
Q 1681 3103 1420 2742 
Q 1159 2381 1159 1747 
Q 1159 1113 1420 752 
Q 1681 391 2138 391 
Q 2594 391 2855 752 
Q 3116 1113 3116 1747 
z
" transform="scale(0.015625)"/>
     </defs>
     <use xlink:href="#DejaVuSans-45"/>
     <use xlink:href="#DejaVuSans-72" transform="translate(63.183594 0)"/>
     <use xlink:href="#DejaVuSans-72" transform="translate(102.546875 0)"/>
     <use xlink:href="#DejaVuSans-6f" transform="translate(141.410156 0)"/>
     <use xlink:href="#DejaVuSans-72" transform="translate(202.591797 0)"/>
     <use xlink:href="#DejaVuSans-20" transform="translate(243.705078 0)"/>
     <use xlink:href="#DejaVuSans-76" transform="translate(275.492188 0)"/>
     <use xlink:href="#DejaVuSans-73" transform="translate(334.671875 0)"/>
     <use xlink:href="#DejaVuSans-2e" transform="translate(386.771484 0)"/>
     <use xlink:href="#DejaVuSans-20" transform="translate(418.558594 0)"/>
     <use xlink:href="#DejaVuSans-54" transform="translate(450.345703 0)"/>
     <use xlink:href="#DejaVuSans-6f" transform="translate(494.429688 0)"/>
     <use xlink:href="#DejaVuSans-6c" transform="translate(555.611328 0)"/>
     <use xlink:href="#DejaVuSans-65" transform="translate(583.394531 0)"/>
     <use xlink:href="#DejaVuSans-72" transform="translate(644.917969 0)"/>
     <use xlink:href="#DejaVuSans-61" transform="translate(686.03125 0)"/>
     <use xlink:href="#DejaVuSans-6e" transform="translate(747.310547 0)"/>
     <use xlink:href="#DejaVuSans-63" transform="translate(810.689453 0)"/>
     <use xlink:href="#DejaVuSans-65" transform="translate(865.669922 0)"/>
     <use xlink:href="#DejaVuSans-20" transform="translate(927.193359 0)"/>
     <use xlink:href="#DejaVuSans-66" transform="translate(958.980469 0)"/>
     <use xlink:href="#DejaVuSans-6f" transform="translate(994.185547 0)"/>
     <use xlink:href="#DejaVuSans-72" transform="translate(1055.367188 0)"/>
     <use xlink:href="#DejaVuSans-20" transform="translate(1096.480469 0)"/>
     <use xlink:href="#DejaVuSans-4c" transform="translate(1128.267578 0)"/>
     <use xlink:href="#DejaVuSans-53" transform="translate(1183.980469 0)"/>
     <use xlink:href="#DejaVuSans-4f" transform="translate(1247.457031 0)"/>
     <use xlink:href="#DejaVuSans-44" transform="translate(1326.167969 0)"/>
     <use xlink:href="#DejaVuSans-41" transform="translate(1401.419922 0)"/>
     <use xlink:href="#DejaVuSans-20" transform="translate(1469.828125 0)"/>
     <use xlink:href="#DejaVuSans-28" transform="translate(1501.615234 0)"/>
     <use xlink:href="#DejaVuSans-50" transform="translate(1540.628906 0)"/>
     <use xlink:href="#DejaVuSans-6f" transform="translate(1597.306641 0)"/>
     <use xlink:href="#DejaVuSans-69" transform="translate(1658.488281 0)"/>
     <use xlink:href="#DejaVuSans-6e" transform="translate(1686.271484 0)"/>
     <use xlink:href="#DejaVuSans-74" transform="translate(1749.650391 0)"/>
     <use xlink:href="#DejaVuSans-20" transform="translate(1788.859375 0)"/>
     <use xlink:href="#DejaVuSans-73" transform="translate(1820.646484 0)"/>
     <use xlink:href="#DejaVuSans-69" transform="translate(1872.746094 0)"/>
     <use xlink:href="#DejaVuSans-7a" transform="translate(1900.529297 0)"/>
     <use xlink:href="#DejaVuSans-65" transform="translate(1953.019531 0)"/>
     <use xlink:href="#DejaVuSans-20" transform="translate(2014.542969 0)"/>
     <use xlink:href="#DejaVuSans-72" transform="translate(2046.330078 0)"/>
     <use xlink:href="#DejaVuSans-65" transform="translate(2085.193359 0)"/>
     <use xlink:href="#DejaVuSans-66" transform="translate(2146.716797 0)"/>
     <use xlink:href="#DejaVuSans-6c" transform="translate(2181.921875 0)"/>
     <use xlink:href="#DejaVuSans-65" transform="translate(2209.705078 0)"/>
     <use xlink:href="#DejaVuSans-63" transform="translate(2271.228516 0)"/>
     <use xlink:href="#DejaVuSans-74" transform="translate(2326.208984 0)"/>
     <use xlink:href="#DejaVuSans-73" transform="translate(2365.417969 0)"/>
     <use xlink:href="#DejaVuSans-20" transform="translate(2417.517578 0)"/>
     <use xlink:href="#DejaVuSans-23" transform="translate(2449.304688 0)"/>
     <use xlink:href="#DejaVuSans-2f" transform="translate(2533.09375 0)"/>
     <use xlink:href="#DejaVuSans-69" transform="translate(2566.785156 0)"/>
     <use xlink:href="#DejaVuSans-6e" transform="translate(2594.568359 0)"/>
     <use xlink:href="#DejaVuSans-74" transform="translate(2657.947266 0)"/>
     <use xlink:href="#DejaVuSans-65" transform="translate(2697.15625 0)"/>
     <use xlink:href="#DejaVuSans-67" transform="translate(2758.679688 0)"/>
     <use xlink:href="#DejaVuSans-72" transform="translate(2822.15625 0)"/>
     <use xlink:href="#DejaVuSans-61" transform="translate(2863.269531 0)"/>
     <use xlink:href="#DejaVuSans-74" transform="translate(2924.548828 0)"/>
     <use xlink:href="#DejaVuSans-69" transform="translate(2963.757812 0)"/>
     <use xlink:href="#DejaVuSans-6f" transform="translate(2991.541016 0)"/>
     <use xlink:href="#DejaVuSans-6e" transform="translate(3052.722656 0)"/>
     <use xlink:href="#DejaVuSans-20" transform="translate(3116.101562 0)"/>
     <use xlink:href="#DejaVuSans-73" transform="translate(3147.888672 0)"/>
     <use xlink:href="#DejaVuSans-74" transform="translate(3199.988281 0)"/>
     <use xlink:href="#DejaVuSans-65" transform="translate(3239.197266 0)"/>
     <use xlink:href="#DejaVuSans-70" transform="translate(3300.720703 0)"/>
     <use xlink:href="#DejaVuSans-73" transform="translate(3364.197266 0)"/>
     <use xlink:href="#DejaVuSans-29" transform="translate(3416.296875 0)"/>
    </g>
   </g>
   <g id="legend_1">
    <g id="patch_7">
     <path d="M 555.407812 460.838125 
L 713.978125 460.838125 
Q 715.978125 460.838125 715.978125 458.838125 
L 715.978125 289.769375 
Q 715.978125 287.769375 713.978125 287.769375 
L 555.407812 287.769375 
Q 553.407812 287.769375 553.407812 289.769375 
L 553.407812 458.838125 
Q 553.407812 460.838125 555.407812 460.838125 
z
" style="fill: #FFFFFF; opacity: 0.8; stroke: #cccccc; stroke-linejoin: miter"/>
    </g>
    <g id="text_18">
     <!-- Series / Bubble Size -->
     <g transform="translate(585.1875 315.367812) scale(0.1 -0.1)">
      <defs>
       <path id="DejaVuSans-42" d="M 1259 2228 
L 1259 519 
L 2272 519 
Q 2781 519 3026 730 
Q 3272 941 3272 1375 
Q 3272 1813 3026 2020 
Q 2781 2228 2272 2228 
L 1259 2228 
z
M 1259 4147 
L 1259 2741 
L 2194 2741 
Q 2656 2741 2882 2914 
Q 3109 3088 3109 3444 
Q 3109 3797 2882 3972 
Q 2656 4147 2194 4147 
L 1259 4147 
z
M 628 4666 
L 2241 4666 
Q 2963 4666 3353 4366 
Q 3744 4066 3744 3513 
Q 3744 3084 3544 2831 
Q 3344 2578 2956 2516 
Q 3422 2416 3680 2098 
Q 3938 1781 3938 1306 
Q 3938 681 3513 340 
Q 3088 0 2303 0 
L 628 0 
L 628 4666 
z
" transform="scale(0.015625)"/>
       <path id="DejaVuSans-75" d="M 544 1381 
L 544 3500 
L 1119 3500 
L 1119 1403 
Q 1119 906 1312 657 
Q 1506 409 1894 409 
Q 2359 409 2629 706 
Q 2900 1003 2900 1516 
L 2900 3500 
L 3475 3500 
L 3475 0 
L 2900 0 
L 2900 538 
Q 2691 219 2414 64 
Q 2138 -91 1772 -91 
Q 1169 -91 856 284 
Q 544 659 544 1381 
z
M 1991 3584 
L 1991 3584 
z
" transform="scale(0.015625)"/>
       <path id="DejaVuSans-62" d="M 3116 1747 
Q 3116 2381 2855 2742 
Q 2594 3103 2138 3103 
Q 1681 3103 1420 2742 
Q 1159 2381 1159 1747 
Q 1159 1113 1420 752 
Q 1681 391 2138 391 
Q 2594 391 2855 752 
Q 3116 1113 3116 1747 
z
M 1159 2969 
Q 1341 3281 1617 3432 
Q 1894 3584 2278 3584 
Q 2916 3584 3314 3078 
Q 3713 2572 3713 1747 
Q 3713 922 3314 415 
Q 2916 -91 2278 -91 
Q 1894 -91 1617 61 
Q 1341 213 1159 525 
L 1159 0 
L 581 0 
L 581 4863 
L 1159 4863 
L 1159 2969 
z
" transform="scale(0.015625)"/>
      </defs>
      <use xlink:href="#DejaVuSans-53"/>
      <use xlink:href="#DejaVuSans-65" transform="translate(63.476562 0)"/>
      <use xlink:href="#DejaVuSans-72" transform="translate(125 0)"/>
      <use xlink:href="#DejaVuSans-69" transform="translate(166.113281 0)"/>
      <use xlink:href="#DejaVuSans-65" transform="translate(193.896484 0)"/>
      <use xlink:href="#DejaVuSans-73" transform="translate(255.419922 0)"/>
      <use xlink:href="#DejaVuSans-20" transform="translate(307.519531 0)"/>
      <use xlink:href="#DejaVuSans-2f" transform="translate(339.306641 0)"/>
      <use xlink:href="#DejaVuSans-20" transform="translate(372.998047 0)"/>
      <use xlink:href="#DejaVuSans-42" transform="translate(404.785156 0)"/>
      <use xlink:href="#DejaVuSans-75" transform="translate(473.388672 0)"/>
      <use xlink:href="#DejaVuSans-62" transform="translate(536.767578 0)"/>
      <use xlink:href="#DejaVuSans-62" transform="translate(600.244141 0)"/>
      <use xlink:href="#DejaVuSans-6c" transform="translate(663.720703 0)"/>
      <use xlink:href="#DejaVuSans-65" transform="translate(691.503906 0)"/>
      <use xlink:href="#DejaVuSans-20" transform="translate(753.027344 0)"/>
      <use xlink:href="#DejaVuSans-53" transform="translate(784.814453 0)"/>
      <use xlink:href="#DejaVuSans-69" transform="translate(848.291016 0)"/>
      <use xlink:href="#DejaVuSans-7a" transform="translate(876.074219 0)"/>
      <use xlink:href="#DejaVuSans-65" transform="translate(928.564453 0)"/>
     </g>
    </g>
    <g id="PathCollection_6">
     <defs>
      <path id="md5569ae891" d="M 0 13.453624 
C 3.567943 13.453624 6.990232 12.036065 9.513149 9.513149 
C 12.036065 6.990232 13.453624 3.567943 13.453624 0 
C 13.453624 -3.567943 12.036065 -6.990232 9.513149 -9.513149 
C 6.990232 -12.036065 3.567943 -13.453624 0 -13.453624 
C -3.567943 -13.453624 -6.990232 -12.036065 -9.513149 -9.513149 
C -12.036065 -6.990232 -13.453624 -3.567943 -13.453624 0 
C -13.453624 3.567943 -12.036065 6.990232 -9.513149 9.513149 
C -6.990232 12.036065 -3.567943 13.453624 0 13.453624 
z
" style="stroke: transparent; stroke-opacity: 0.7; stroke-width: 0.5"/>
     </defs>
     <g>
      <use xlink:href="#md5569ae891" x="583.407812" y="337.420937" style="fill: #1f77b4; fill-opacity: 0.7; stroke: transparent; stroke-opacity: 0.7; stroke-width: 0.5"/>
     </g>
    </g>
    <g id="text_19">
     <!-- Relative Tolerance -->
     <g transform="translate(601.407812 340.045937) scale(0.1 -0.1)">
      <defs>
       <path id="DejaVuSans-52" d="M 2841 2188 
Q 3044 2119 3236 1894 
Q 3428 1669 3622 1275 
L 4263 0 
L 3584 0 
L 2988 1197 
Q 2756 1666 2539 1819 
Q 2322 1972 1947 1972 
L 1259 1972 
L 1259 0 
L 628 0 
L 628 4666 
L 2053 4666 
Q 2853 4666 3247 4331 
Q 3641 3997 3641 3322 
Q 3641 2881 3436 2590 
Q 3231 2300 2841 2188 
z
M 1259 4147 
L 1259 2491 
L 2053 2491 
Q 2509 2491 2742 2702 
Q 2975 2913 2975 3322 
Q 2975 3731 2742 3939 
Q 2509 4147 2053 4147 
L 1259 4147 
z
" transform="scale(0.015625)"/>
      </defs>
      <use xlink:href="#DejaVuSans-52"/>
      <use xlink:href="#DejaVuSans-65" transform="translate(64.982422 0)"/>
      <use xlink:href="#DejaVuSans-6c" transform="translate(126.505859 0)"/>
      <use xlink:href="#DejaVuSans-61" transform="translate(154.289062 0)"/>
      <use xlink:href="#DejaVuSans-74" transform="translate(215.568359 0)"/>
      <use xlink:href="#DejaVuSans-69" transform="translate(254.777344 0)"/>
      <use xlink:href="#DejaVuSans-76" transform="translate(282.560547 0)"/>
      <use xlink:href="#DejaVuSans-65" transform="translate(341.740234 0)"/>
      <use xlink:href="#DejaVuSans-20" transform="translate(403.263672 0)"/>
      <use xlink:href="#DejaVuSans-54" transform="translate(435.050781 0)"/>
      <use xlink:href="#DejaVuSans-6f" transform="translate(479.134766 0)"/>
      <use xlink:href="#DejaVuSans-6c" transform="translate(540.316406 0)"/>
      <use xlink:href="#DejaVuSans-65" transform="translate(568.099609 0)"/>
      <use xlink:href="#DejaVuSans-72" transform="translate(629.623047 0)"/>
      <use xlink:href="#DejaVuSans-61" transform="translate(670.736328 0)"/>
      <use xlink:href="#DejaVuSans-6e" transform="translate(732.015625 0)"/>
      <use xlink:href="#DejaVuSans-63" transform="translate(795.394531 0)"/>
      <use xlink:href="#DejaVuSans-65" transform="translate(850.375 0)"/>
     </g>
    </g>
    <g id="PathCollection_7">
     <defs>
      <path id="m4165e64a4c" d="M 0 17.76056 
C 4.710156 17.76056 9.22803 15.889196 12.558613 12.558613 
C 15.889196 9.22803 17.76056 4.710156 17.76056 0 
C 17.76056 -4.710156 15.889196 -9.22803 12.558613 -12.558613 
C 9.22803 -15.889196 4.710156 -17.76056 0 -17.76056 
C -4.710156 -17.76056 -9.22803 -15.889196 -12.558613 -12.558613 
C -15.889196 -9.22803 -17.76056 -4.710156 -17.76056 0 
C -17.76056 4.710156 -15.889196 9.22803 -12.558613 12.558613 
C -9.22803 15.889196 -4.710156 17.76056 0 17.76056 
z
" style="stroke: transparent; stroke-opacity: 0.7; stroke-width: 0.5"/>
     </defs>
     <g>
      <use xlink:href="#md5569ae891" x="583.407812" y="362.099062" style="fill: #ff7f0e; fill-opacity: 0.7; stroke: transparent; stroke-opacity: 0.7; stroke-width: 0.5"/>
     </g>
    </g>
    <g id="text_20">
     <!-- Absolute Tolerance -->
     <g transform="translate(601.407812 364.724062) scale(0.1 -0.1)">
      <use xlink:href="#DejaVuSans-41"/>
      <use xlink:href="#DejaVuSans-62" transform="translate(68.408203 0)"/>
      <use xlink:href="#DejaVuSans-73" transform="translate(131.884766 0)"/>
      <use xlink:href="#DejaVuSans-6f" transform="translate(183.984375 0)"/>
      <use xlink:href="#DejaVuSans-6c" transform="translate(245.166016 0)"/>
      <use xlink:href="#DejaVuSans-75" transform="translate(272.949219 0)"/>
      <use xlink:href="#DejaVuSans-74" transform="translate(336.328125 0)"/>
      <use xlink:href="#DejaVuSans-65" transform="translate(375.537109 0)"/>
      <use xlink:href="#DejaVuSans-20" transform="translate(437.060547 0)"/>
      <use xlink:href="#DejaVuSans-54" transform="translate(468.847656 0)"/>
      <use xlink:href="#DejaVuSans-6f" transform="translate(512.931641 0)"/>
      <use xlink:href="#DejaVuSans-6c" transform="translate(574.113281 0)"/>
      <use xlink:href="#DejaVuSans-65" transform="translate(601.896484 0)"/>
      <use xlink:href="#DejaVuSans-72" transform="translate(663.419922 0)"/>
      <use xlink:href="#DejaVuSans-61" transform="translate(704.533203 0)"/>
      <use xlink:href="#DejaVuSans-6e" transform="translate(765.8125 0)"/>
      <use xlink:href="#DejaVuSans-63" transform="translate(829.191406 0)"/>
      <use xlink:href="#DejaVuSans-65" transform="translate(884.171875 0)"/>
     </g>
    </g>
    <g id="PathCollection_8">
     <defs>
      <path id="ma369c418e3" d="M 0 3.535534 
C 0.937635 3.535534 1.836992 3.163008 2.5 2.5 
C 3.163008 1.836992 3.535534 0.937635 3.535534 0 
C 3.535534 -0.937635 3.163008 -1.836992 2.5 -2.5 
C 1.836992 -3.163008 0.937635 -3.535534 0 -3.535534 
C -0.937635 -3.535534 -1.836992 -3.163008 -2.5 -2.5 
C -3.163008 -1.836992 -3.535534 -0.937635 -3.535534 0 
C -3.535534 0.937635 -3.163008 1.836992 -2.5 2.5 
C -1.836992 3.163008 -0.937635 3.535534 0 3.535534 
z
" style="stroke-opacity: 0.7"/>
     </defs>
     <g>
      <use xlink:href="#ma369c418e3" x="583.407812" y="386.777187" style="fill-opacity: 0.7; stroke-opacity: 0.7"/>
     </g>
    </g>
    <g id="text_21">
     <!-- 100 steps -->
     <g transform="translate(601.407812 389.402187) scale(0.1 -0.1)">
      <use xlink:href="#DejaVuSans-31"/>
      <use xlink:href="#DejaVuSans-30" transform="translate(63.623047 0)"/>
      <use xlink:href="#DejaVuSans-30" transform="translate(127.246094 0)"/>
      <use xlink:href="#DejaVuSans-20" transform="translate(190.869141 0)"/>
      <use xlink:href="#DejaVuSans-73" transform="translate(222.65625 0)"/>
      <use xlink:href="#DejaVuSans-74" transform="translate(274.755859 0)"/>
      <use xlink:href="#DejaVuSans-65" transform="translate(313.964844 0)"/>
      <use xlink:href="#DejaVuSans-70" transform="translate(375.488281 0)"/>
      <use xlink:href="#DejaVuSans-73" transform="translate(438.964844 0)"/>
     </g>
    </g>
    <g id="PathCollection_9">
     <defs>
      <path id="m27ab384603" d="M 0 7.905694 
C 2.096615 7.905694 4.10764 7.0727 5.59017 5.59017 
C 7.0727 4.10764 7.905694 2.096615 7.905694 0 
C 7.905694 -2.096615 7.0727 -4.10764 5.59017 -5.59017 
C 4.10764 -7.0727 2.096615 -7.905694 0 -7.905694 
C -2.096615 -7.905694 -4.10764 -7.0727 -5.59017 -5.59017 
C -7.0727 -4.10764 -7.905694 -2.096615 -7.905694 0 
C -7.905694 2.096615 -7.0727 4.10764 -5.59017 5.59017 
C -4.10764 7.0727 -2.096615 7.905694 0 7.905694 
z
" style="stroke-opacity: 0.7"/>
     </defs>
     <g>
      <use xlink:href="#m27ab384603" x="583.407812" y="411.455312" style="fill-opacity: 0.7; stroke-opacity: 0.7"/>
     </g>
    </g>
    <g id="text_22">
     <!-- 500 steps -->
     <g transform="translate(601.407812 414.080312) scale(0.1 -0.1)">
      <use xlink:href="#DejaVuSans-35"/>
      <use xlink:href="#DejaVuSans-30" transform="translate(63.623047 0)"/>
      <use xlink:href="#DejaVuSans-30" transform="translate(127.246094 0)"/>
      <use xlink:href="#DejaVuSans-20" transform="translate(190.869141 0)"/>
      <use xlink:href="#DejaVuSans-73" transform="translate(222.65625 0)"/>
      <use xlink:href="#DejaVuSans-74" transform="translate(274.755859 0)"/>
      <use xlink:href="#DejaVuSans-65" transform="translate(313.964844 0)"/>
      <use xlink:href="#DejaVuSans-70" transform="translate(375.488281 0)"/>
      <use xlink:href="#DejaVuSans-73" transform="translate(438.964844 0)"/>
     </g>
    </g>
    <g id="PathCollection_10">
     <defs>
      <path id="m153ad6b3c7" d="M 0 11.18034 
C 2.965061 11.18034 5.80908 10.002309 7.905694 7.905694 
C 10.002309 5.80908 11.18034 2.965061 11.18034 0 
C 11.18034 -2.965061 10.002309 -5.80908 7.905694 -7.905694 
C 5.80908 -10.002309 2.965061 -11.18034 0 -11.18034 
C -2.965061 -11.18034 -5.80908 -10.002309 -7.905694 -7.905694 
C -10.002309 -5.80908 -11.18034 -2.965061 -11.18034 0 
C -11.18034 2.965061 -10.002309 5.80908 -7.905694 7.905694 
C -5.80908 10.002309 -2.965061 11.18034 0 11.18034 
z
" style="stroke-opacity: 0.7"/>
     </defs>
     <g>
      <use xlink:href="#m153ad6b3c7" x="583.407812" y="436.133437" style="fill-opacity: 0.7; stroke-opacity: 0.7"/>
     </g>
    </g>
    <g id="text_23">
     <!-- 1000 steps -->
     <g transform="translate(601.407812 438.758437) scale(0.1 -0.1)">
      <use xlink:href="#DejaVuSans-31"/>
      <use xlink:href="#DejaVuSans-30" transform="translate(63.623047 0)"/>
      <use xlink:href="#DejaVuSans-30" transform="translate(127.246094 0)"/>
      <use xlink:href="#DejaVuSans-30" transform="translate(190.869141 0)"/>
      <use xlink:href="#DejaVuSans-20" transform="translate(254.492188 0)"/>
      <use xlink:href="#DejaVuSans-73" transform="translate(286.279297 0)"/>
      <use xlink:href="#DejaVuSans-74" transform="translate(338.378906 0)"/>
      <use xlink:href="#DejaVuSans-65" transform="translate(377.587891 0)"/>
      <use xlink:href="#DejaVuSans-70" transform="translate(439.111328 0)"/>
      <use xlink:href="#DejaVuSans-73" transform="translate(502.587891 0)"/>
     </g>
    </g>
   </g>
  </g>
 </g>
 <defs>
  <clipPath id="p3ee54cd3e6">
   <rect x="51.378125" y="22.318125" width="669.6" height="443.52"/>
  </clipPath>
 </defs>
</svg>
