<?xml version="1.0" encoding="utf-8" standalone="no"?>
<!DOCTYPE svg PUBLIC "-//W3C//DTD SVG 1.1//EN"
  "http://www.w3.org/Graphics/SVG/1.1/DTD/svg11.dtd">
<svg xmlns:xlink="http://www.w3.org/1999/xlink" width="459.430937pt" height="339.144812pt" viewBox="0 0 459.430937 339.144812" xmlns="http://www.w3.org/2000/svg" version="1.1">
 <metadata>
  <rdf:RDF xmlns:dc="http://purl.org/dc/elements/1.1/" xmlns:cc="http://creativecommons.org/ns#" xmlns:rdf="http://www.w3.org/1999/02/22-rdf-syntax-ns#">
   <cc:Work>
    <dc:type rdf:resource="http://purl.org/dc/dcmitype/StillImage"/>
    <dc:date>2025-09-11T13:33:22.882554</dc:date>
    <dc:format>image/svg+xml</dc:format>
    <dc:creator>
     <cc:Agent>
      <dc:title>Matplotlib v3.10.3, https://matplotlib.org/</dc:title>
     </cc:Agent>
    </dc:creator>
   </cc:Work>
  </rdf:RDF>
 </metadata>
 <defs>
  <style type="text/css">*{stroke-linejoin: round; stroke-linecap: butt}</style>
 </defs>
 <g id="figure_1">
  <g id="patch_1">
   <path d="M 0 339.144812 
L 459.430938 339.144812 
L 459.430938 0 
L 0 0 
L 0 339.144812 
z
" style="fill: none; opacity: 0"/>
  </g>
  <g id="axes_1">
   <g id="matplotlib.axis_1">
    <g id="ytick_1">
     <g id="line2d_1">
      <defs>
       <path id="m609e32893f" d="M 0 0 
L 3.5 0 
" style="stroke: #FFAA00; stroke-width: 0.8"/>
      </defs>
      <g>
       <use xlink:href="#m609e32893f" x="406.102813" y="301.588562" style="stroke: #FFAA00; stroke-width: 0.8"/>
      </g>
     </g>
     <g id="text_1" fill="#FFAA00">
      <!-- 0 -->
      <g transform="translate(413.102813 305.387781) scale(0.1 -0.1)">
       <defs>
        <path id="DejaVuSans-30" d="M 2034 4250 
Q 1547 4250 1301 3770 
Q 1056 3291 1056 2328 
Q 1056 1369 1301 889 
Q 1547 409 2034 409 
Q 2525 409 2770 889 
Q 3016 1369 3016 2328 
Q 3016 3291 2770 3770 
Q 2525 4250 2034 4250 
z
M 2034 4750 
Q 2819 4750 3233 4129 
Q 3647 3509 3647 2328 
Q 3647 1150 3233 529 
Q 2819 -91 2034 -91 
Q 1250 -91 836 529 
Q 422 1150 422 2328 
Q 422 3509 836 4129 
Q 1250 4750 2034 4750 
z
" transform="scale(0.015625)"/>
       </defs>
       <use xlink:href="#DejaVuSans-30"/>
      </g>
     </g>
    </g>
    <g id="ytick_2">
     <g id="line2d_2">
      <g>
       <use xlink:href="#m609e32893f" x="406.102813" y="250.413178" style="stroke: #FFAA00; stroke-width: 0.8"/>
      </g>
     </g>
     <g id="text_2" fill="#FFAA00">
      <!-- 500 -->
      <g transform="translate(413.102813 254.212397) scale(0.1 -0.1)">
       <defs>
        <path id="DejaVuSans-35" d="M 691 4666 
L 3169 4666 
L 3169 4134 
L 1269 4134 
L 1269 2991 
Q 1406 3038 1543 3061 
Q 1681 3084 1819 3084 
Q 2600 3084 3056 2656 
Q 3513 2228 3513 1497 
Q 3513 744 3044 326 
Q 2575 -91 1722 -91 
Q 1428 -91 1123 -41 
Q 819 9 494 109 
L 494 744 
Q 775 591 1075 516 
Q 1375 441 1709 441 
Q 2250 441 2565 725 
Q 2881 1009 2881 1497 
Q 2881 1984 2565 2268 
Q 2250 2553 1709 2553 
Q 1456 2553 1204 2497 
Q 953 2441 691 2322 
L 691 4666 
z
" transform="scale(0.015625)"/>
       </defs>
       <use xlink:href="#DejaVuSans-35"/>
       <use xlink:href="#DejaVuSans-30" transform="translate(63.623047 0)"/>
       <use xlink:href="#DejaVuSans-30" transform="translate(127.246094 0)"/>
      </g>
     </g>
    </g>
    <g id="ytick_3">
     <g id="line2d_3">
      <g>
       <use xlink:href="#m609e32893f" x="406.102813" y="199.237793" style="stroke: #FFAA00; stroke-width: 0.8"/>
      </g>
     </g>
     <g id="text_3" fill="#FFAA00">
      <!-- 1000 -->
      <g transform="translate(413.102813 203.037012) scale(0.1 -0.1)">
       <defs>
        <path id="DejaVuSans-31" d="M 794 531 
L 1825 531 
L 1825 4091 
L 703 3866 
L 703 4441 
L 1819 4666 
L 2450 4666 
L 2450 531 
L 3481 531 
L 3481 0 
L 794 0 
L 794 531 
z
" transform="scale(0.015625)"/>
       </defs>
       <use xlink:href="#DejaVuSans-31"/>
       <use xlink:href="#DejaVuSans-30" transform="translate(63.623047 0)"/>
       <use xlink:href="#DejaVuSans-30" transform="translate(127.246094 0)"/>
       <use xlink:href="#DejaVuSans-30" transform="translate(190.869141 0)"/>
      </g>
     </g>
    </g>
    <g id="ytick_4">
     <g id="line2d_4">
      <g>
       <use xlink:href="#m609e32893f" x="406.102813" y="148.062409" style="stroke: #FFAA00; stroke-width: 0.8"/>
      </g>
     </g>
     <g id="text_4" fill="#FFAA00">
      <!-- 1500 -->
      <g transform="translate(413.102813 151.861627) scale(0.1 -0.1)">
       <use xlink:href="#DejaVuSans-31"/>
       <use xlink:href="#DejaVuSans-35" transform="translate(63.623047 0)"/>
       <use xlink:href="#DejaVuSans-30" transform="translate(127.246094 0)"/>
       <use xlink:href="#DejaVuSans-30" transform="translate(190.869141 0)"/>
      </g>
     </g>
    </g>
    <g id="ytick_5">
     <g id="line2d_5">
      <g>
       <use xlink:href="#m609e32893f" x="406.102813" y="96.887024" style="stroke: #FFAA00; stroke-width: 0.8"/>
      </g>
     </g>
     <g id="text_5" fill="#FFAA00">
      <!-- 2000 -->
      <g transform="translate(413.102813 100.686243) scale(0.1 -0.1)">
       <defs>
        <path id="DejaVuSans-32" d="M 1228 531 
L 3431 531 
L 3431 0 
L 469 0 
L 469 531 
Q 828 903 1448 1529 
Q 2069 2156 2228 2338 
Q 2531 2678 2651 2914 
Q 2772 3150 2772 3378 
Q 2772 3750 2511 3984 
Q 2250 4219 1831 4219 
Q 1534 4219 1204 4116 
Q 875 4013 500 3803 
L 500 4441 
Q 881 4594 1212 4672 
Q 1544 4750 1819 4750 
Q 2544 4750 2975 4387 
Q 3406 4025 3406 3419 
Q 3406 3131 3298 2873 
Q 3191 2616 2906 2266 
Q 2828 2175 2409 1742 
Q 1991 1309 1228 531 
z
" transform="scale(0.015625)"/>
       </defs>
       <use xlink:href="#DejaVuSans-32"/>
       <use xlink:href="#DejaVuSans-30" transform="translate(63.623047 0)"/>
       <use xlink:href="#DejaVuSans-30" transform="translate(127.246094 0)"/>
       <use xlink:href="#DejaVuSans-30" transform="translate(190.869141 0)"/>
      </g>
     </g>
    </g>
    <g id="ytick_6">
     <g id="line2d_6">
      <g>
       <use xlink:href="#m609e32893f" x="406.102813" y="45.711639" style="stroke: #FFAA00; stroke-width: 0.8"/>
      </g>
     </g>
     <g id="text_6" fill="#FFAA00">
      <!-- 2500 -->
      <g transform="translate(413.102813 49.510858) scale(0.1 -0.1)">
       <use xlink:href="#DejaVuSans-32"/>
       <use xlink:href="#DejaVuSans-35" transform="translate(63.623047 0)"/>
       <use xlink:href="#DejaVuSans-30" transform="translate(127.246094 0)"/>
       <use xlink:href="#DejaVuSans-30" transform="translate(190.869141 0)"/>
      </g>
     </g>
    </g>
    <g id="text_7" fill="#FFAA00">
     <!-- ft/s -->
     <g transform="translate(450.15125 176.454437) rotate(-90) scale(0.1 -0.1)">
      <defs>
       <path id="DejaVuSans-66" d="M 2375 4863 
L 2375 4384 
L 1825 4384 
Q 1516 4384 1395 4259 
Q 1275 4134 1275 3809 
L 1275 3500 
L 2222 3500 
L 2222 3053 
L 1275 3053 
L 1275 0 
L 697 0 
L 697 3053 
L 147 3053 
L 147 3500 
L 697 3500 
L 697 3744 
Q 697 4328 969 4595 
Q 1241 4863 1831 4863 
L 2375 4863 
z
" transform="scale(0.015625)"/>
       <path id="DejaVuSans-74" d="M 1172 4494 
L 1172 3500 
L 2356 3500 
L 2356 3053 
L 1172 3053 
L 1172 1153 
Q 1172 725 1289 603 
Q 1406 481 1766 481 
L 2356 481 
L 2356 0 
L 1766 0 
Q 1100 0 847 248 
Q 594 497 594 1153 
L 594 3053 
L 172 3053 
L 172 3500 
L 594 3500 
L 594 4494 
L 1172 4494 
z
" transform="scale(0.015625)"/>
       <path id="DejaVuSans-2f" d="M 1625 4666 
L 2156 4666 
L 531 -594 
L 0 -594 
L 1625 4666 
z
" transform="scale(0.015625)"/>
       <path id="DejaVuSans-73" d="M 2834 3397 
L 2834 2853 
Q 2591 2978 2328 3040 
Q 2066 3103 1784 3103 
Q 1356 3103 1142 2972 
Q 928 2841 928 2578 
Q 928 2378 1081 2264 
Q 1234 2150 1697 2047 
L 1894 2003 
Q 2506 1872 2764 1633 
Q 3022 1394 3022 966 
Q 3022 478 2636 193 
Q 2250 -91 1575 -91 
Q 1294 -91 989 -36 
Q 684 19 347 128 
L 347 722 
Q 666 556 975 473 
Q 1284 391 1588 391 
Q 1994 391 2212 530 
Q 2431 669 2431 922 
Q 2431 1156 2273 1281 
Q 2116 1406 1581 1522 
L 1381 1569 
Q 847 1681 609 1914 
Q 372 2147 372 2553 
Q 372 3047 722 3315 
Q 1072 3584 1716 3584 
Q 2034 3584 2315 3537 
Q 2597 3491 2834 3397 
z
" transform="scale(0.015625)"/>
      </defs>
      <use xlink:href="#DejaVuSans-66"/>
      <use xlink:href="#DejaVuSans-74" transform="translate(33.455078 0)"/>
      <use xlink:href="#DejaVuSans-2f" transform="translate(72.664062 0)"/>
      <use xlink:href="#DejaVuSans-73" transform="translate(106.355469 0)"/>
     </g>
    </g>
   </g>
   <g id="line2d_7">
    <path d="M 65.21554 35.476562 
L 71.708631 37.584327 
L 78.201722 39.683103 
L 79.262558 40.025137 
L 84.694812 41.772785 
L 91.187903 43.853215 
L 97.680994 45.924484 
L 104.174085 47.986656 
L 110.667176 50.039768 
L 117.160267 52.083531 
L 123.653358 54.117673 
L 130.146449 56.14211 
L 136.63954 58.157091 
L 143.132631 60.162865 
L 149.625722 62.159317 
L 156.118812 64.146194 
L 162.611903 66.123293 
L 169.104994 68.090555 
L 173.15929 69.313912 
L 175.598085 70.047942 
L 182.091176 71.995334 
L 188.584267 73.932781 
L 195.077358 75.860314 
L 201.570449 77.777884 
L 208.06354 79.685618 
L 214.556631 81.583607 
L 221.049722 83.471791 
L 227.542812 85.35049 
L 234.035903 87.219906 
L 240.528994 89.080276 
L 247.022085 90.931686 
L 253.515176 92.774222 
L 260.008266 94.607939 
L 266.501358 96.432999 
L 272.994449 98.249569 
L 279.48754 100.057694 
L 285.980631 101.857622 
L 292.473722 103.649629 
L 298.966812 105.434048 
L 305.459903 107.211023 
L 311.952994 108.980381 
L 318.446085 110.742069 
L 324.939176 112.496033 
L 331.432267 114.242445 
L 337.925358 115.981372 
L 344.418449 117.712766 
L 350.91154 119.436897 
L 357.404631 121.153907 
L 363.897722 122.86404 
L 370.390812 124.56729 
L 376.883903 126.263568 
L 383.376994 127.952836 
L 389.870085 129.635063 
" clip-path="url(#p5455e73307)" style="fill: none; stroke: #6c8ebf; stroke-width: 1.5; stroke-linecap: square"/>
   </g>
   <g id="patch_2">
    <path d="M 48.982813 301.588562 
L 48.982813 35.476562 
" style="fill: none; stroke: #FFAA00; stroke-width: 0.8; stroke-linejoin: miter; stroke-linecap: square"/>
   </g>
   <g id="patch_3">
    <path d="M 406.102813 301.588562 
L 406.102813 35.476562 
" style="fill: none; stroke: #FFAA00; stroke-width: 0.8; stroke-linejoin: miter; stroke-linecap: square"/>
   </g>
   <g id="patch_4">
    <path d="M 48.982813 301.588562 
L 406.102813 301.588562 
" style="fill: none; stroke: #FFAA00; stroke-width: 0.8; stroke-linejoin: miter; stroke-linecap: square"/>
   </g>
   <g id="patch_5">
    <path d="M 48.982813 35.476562 
L 406.102813 35.476562 
" style="fill: none; stroke: #FFAA00; stroke-width: 0.8; stroke-linejoin: miter; stroke-linecap: square"/>
   </g>
  </g>
  <g id="axes_2">
   <g id="patch_6">
    <path d="M 48.982813 301.588562 
L 406.102813 301.588562 
L 406.102813 35.476562 
L 48.982813 35.476562 
L 48.982813 301.588562 
z
" style="fill: none; opacity: 0"/>
   </g>
   <g id="patch_7">
    <path d="M 267.132241 182.283127 
L 312.690151 182.283127 
L 312.690151 210.230958 
L 267.132241 210.230958 
z
" clip-path="url(#p5455e73307)" style="fill: #ff0000; opacity: 0.3"/>
   </g>
   <g id="matplotlib.axis_2">
    <g id="xtick_1">
     <g id="line2d_8">
      <defs>
       <path id="ma025486170" d="M 0 0 
L 0 3.5 
" style="stroke: #FFAA00; stroke-width: 0.8"/>
      </defs>
      <g>
       <use xlink:href="#ma025486170" x="65.21554" y="301.588562" style="stroke: #FFAA00; stroke-width: 0.8"/>
      </g>
     </g>
     <g id="text_8" fill="#FFAA00">
      <!-- 0 -->
      <g transform="translate(62.03429 316.187) scale(0.1 -0.1)">
       <use xlink:href="#DejaVuSans-30"/>
      </g>
     </g>
    </g>
    <g id="xtick_2">
     <g id="line2d_9">
      <g>
       <use xlink:href="#ma025486170" x="130.146449" y="301.588562" style="stroke: #FFAA00; stroke-width: 0.8"/>
      </g>
     </g>
     <g id="text_9" fill="#FFAA00">
      <!-- 100 -->
      <g transform="translate(120.602699 316.187) scale(0.1 -0.1)">
       <use xlink:href="#DejaVuSans-31"/>
       <use xlink:href="#DejaVuSans-30" transform="translate(63.623047 0)"/>
       <use xlink:href="#DejaVuSans-30" transform="translate(127.246094 0)"/>
      </g>
     </g>
    </g>
    <g id="xtick_3">
     <g id="line2d_10">
      <g>
       <use xlink:href="#ma025486170" x="195.077358" y="301.588562" style="stroke: #FFAA00; stroke-width: 0.8"/>
      </g>
     </g>
     <g id="text_10" fill="#FFAA00">
      <!-- 200 -->
      <g transform="translate(185.533608 316.187) scale(0.1 -0.1)">
       <use xlink:href="#DejaVuSans-32"/>
       <use xlink:href="#DejaVuSans-30" transform="translate(63.623047 0)"/>
       <use xlink:href="#DejaVuSans-30" transform="translate(127.246094 0)"/>
      </g>
     </g>
    </g>
    <g id="xtick_4">
     <g id="line2d_11">
      <g>
       <use xlink:href="#ma025486170" x="260.008267" y="301.588562" style="stroke: #FFAA00; stroke-width: 0.8"/>
      </g>
     </g>
     <g id="text_11" fill="#FFAA00">
      <!-- 300 -->
      <g transform="translate(250.464517 316.187) scale(0.1 -0.1)">
       <defs>
        <path id="DejaVuSans-33" d="M 2597 2516 
Q 3050 2419 3304 2112 
Q 3559 1806 3559 1356 
Q 3559 666 3084 287 
Q 2609 -91 1734 -91 
Q 1441 -91 1130 -33 
Q 819 25 488 141 
L 488 750 
Q 750 597 1062 519 
Q 1375 441 1716 441 
Q 2309 441 2620 675 
Q 2931 909 2931 1356 
Q 2931 1769 2642 2001 
Q 2353 2234 1838 2234 
L 1294 2234 
L 1294 2753 
L 1863 2753 
Q 2328 2753 2575 2939 
Q 2822 3125 2822 3475 
Q 2822 3834 2567 4026 
Q 2313 4219 1838 4219 
Q 1578 4219 1281 4162 
Q 984 4106 628 3988 
L 628 4550 
Q 988 4650 1302 4700 
Q 1616 4750 1894 4750 
Q 2613 4750 3031 4423 
Q 3450 4097 3450 3541 
Q 3450 3153 3228 2886 
Q 3006 2619 2597 2516 
z
" transform="scale(0.015625)"/>
       </defs>
       <use xlink:href="#DejaVuSans-33"/>
       <use xlink:href="#DejaVuSans-30" transform="translate(63.623047 0)"/>
       <use xlink:href="#DejaVuSans-30" transform="translate(127.246094 0)"/>
      </g>
     </g>
    </g>
    <g id="xtick_5">
     <g id="line2d_12">
      <g>
       <use xlink:href="#ma025486170" x="324.939176" y="301.588562" style="stroke: #FFAA00; stroke-width: 0.8"/>
      </g>
     </g>
     <g id="text_12" fill="#FFAA00">
      <!-- 400 -->
      <g transform="translate(315.395426 316.187) scale(0.1 -0.1)">
       <defs>
        <path id="DejaVuSans-34" d="M 2419 4116 
L 825 1625 
L 2419 1625 
L 2419 4116 
z
M 2253 4666 
L 3047 4666 
L 3047 1625 
L 3713 1625 
L 3713 1100 
L 3047 1100 
L 3047 0 
L 2419 0 
L 2419 1100 
L 313 1100 
L 313 1709 
L 2253 4666 
z
" transform="scale(0.015625)"/>
       </defs>
       <use xlink:href="#DejaVuSans-34"/>
       <use xlink:href="#DejaVuSans-30" transform="translate(63.623047 0)"/>
       <use xlink:href="#DejaVuSans-30" transform="translate(127.246094 0)"/>
      </g>
     </g>
    </g>
    <g id="xtick_6">
     <g id="line2d_13">
      <g>
       <use xlink:href="#ma025486170" x="389.870085" y="301.588562" style="stroke: #FFAA00; stroke-width: 0.8"/>
      </g>
     </g>
     <g id="text_13" fill="#FFAA00">
      <!-- 500 -->
      <g transform="translate(380.326335 316.187) scale(0.1 -0.1)">
       <use xlink:href="#DejaVuSans-35"/>
       <use xlink:href="#DejaVuSans-30" transform="translate(63.623047 0)"/>
       <use xlink:href="#DejaVuSans-30" transform="translate(127.246094 0)"/>
      </g>
     </g>
    </g>
    <g id="text_14" fill="#FFAA00">
     <!-- yd -->
     <g transform="translate(221.409219 329.865125) scale(0.1 -0.1)">
      <defs>
       <path id="DejaVuSans-79" d="M 2059 -325 
Q 1816 -950 1584 -1140 
Q 1353 -1331 966 -1331 
L 506 -1331 
L 506 -850 
L 844 -850 
Q 1081 -850 1212 -737 
Q 1344 -625 1503 -206 
L 1606 56 
L 191 3500 
L 800 3500 
L 1894 763 
L 2988 3500 
L 3597 3500 
L 2059 -325 
z
" transform="scale(0.015625)"/>
       <path id="DejaVuSans-64" d="M 2906 2969 
L 2906 4863 
L 3481 4863 
L 3481 0 
L 2906 0 
L 2906 525 
Q 2725 213 2448 61 
Q 2172 -91 1784 -91 
Q 1150 -91 751 415 
Q 353 922 353 1747 
Q 353 2572 751 3078 
Q 1150 3584 1784 3584 
Q 2172 3584 2448 3432 
Q 2725 3281 2906 2969 
z
M 947 1747 
Q 947 1113 1208 752 
Q 1469 391 1925 391 
Q 2381 391 2643 752 
Q 2906 1113 2906 1747 
Q 2906 2381 2643 2742 
Q 2381 3103 1925 3103 
Q 1469 3103 1208 2742 
Q 947 2381 947 1747 
z
" transform="scale(0.015625)"/>
      </defs>
      <use xlink:href="#DejaVuSans-79"/>
      <use xlink:href="#DejaVuSans-64" transform="translate(59.179688 0)"/>
     </g>
    </g>
   </g>
   <g id="matplotlib.axis_3">
    <g id="ytick_7">
     <g id="line2d_14">
      <defs>
       <path id="mcbb7b7c367" d="M 0 0 
L -3.5 0 
" style="stroke: #FFAA00; stroke-width: 0.8"/>
      </defs>
      <g>
       <use xlink:href="#mcbb7b7c367" x="48.982813" y="290.819978" style="stroke: #FFAA00; stroke-width: 0.8"/>
      </g>
     </g>
     <g id="text_15" fill="#FFAA00">
      <!-- −40 -->
      <g transform="translate(20.878125 294.619197) scale(0.1 -0.1)">
       <defs>
        <path id="DejaVuSans-2212" d="M 678 2272 
L 4684 2272 
L 4684 1741 
L 678 1741 
L 678 2272 
z
" transform="scale(0.015625)"/>
       </defs>
       <use xlink:href="#DejaVuSans-2212"/>
       <use xlink:href="#DejaVuSans-34" transform="translate(83.789062 0)"/>
       <use xlink:href="#DejaVuSans-30" transform="translate(147.412109 0)"/>
      </g>
     </g>
    </g>
    <g id="ytick_8">
     <g id="line2d_15">
      <g>
       <use xlink:href="#mcbb7b7c367" x="48.982813" y="234.924317" style="stroke: #FFAA00; stroke-width: 0.8"/>
      </g>
     </g>
     <g id="text_16" fill="#FFAA00">
      <!-- −20 -->
      <g transform="translate(20.878125 238.723535) scale(0.1 -0.1)">
       <use xlink:href="#DejaVuSans-2212"/>
       <use xlink:href="#DejaVuSans-32" transform="translate(83.789062 0)"/>
       <use xlink:href="#DejaVuSans-30" transform="translate(147.412109 0)"/>
      </g>
     </g>
    </g>
    <g id="ytick_9">
     <g id="line2d_16">
      <g>
       <use xlink:href="#mcbb7b7c367" x="48.982813" y="179.028655" style="stroke: #FFAA00; stroke-width: 0.8"/>
      </g>
     </g>
     <g id="text_17" fill="#FFAA00">
      <!-- 0 -->
      <g transform="translate(35.620313 182.827873) scale(0.1 -0.1)">
       <use xlink:href="#DejaVuSans-30"/>
      </g>
     </g>
    </g>
    <g id="ytick_10">
     <g id="line2d_17">
      <g>
       <use xlink:href="#mcbb7b7c367" x="48.982813" y="123.132993" style="stroke: #FFAA00; stroke-width: 0.8"/>
      </g>
     </g>
     <g id="text_18" fill="#FFAA00">
      <!-- 20 -->
      <g transform="translate(29.257813 126.932211) scale(0.1 -0.1)">
       <use xlink:href="#DejaVuSans-32"/>
       <use xlink:href="#DejaVuSans-30" transform="translate(63.623047 0)"/>
      </g>
     </g>
    </g>
    <g id="ytick_11">
     <g id="line2d_18">
      <g>
       <use xlink:href="#mcbb7b7c367" x="48.982813" y="67.237331" style="stroke: #FFAA00; stroke-width: 0.8"/>
      </g>
     </g>
     <g id="text_19" fill="#FFAA00">
      <!-- 40 -->
      <g transform="translate(29.257813 71.03655) scale(0.1 -0.1)">
       <use xlink:href="#DejaVuSans-34"/>
       <use xlink:href="#DejaVuSans-30" transform="translate(63.623047 0)"/>
      </g>
     </g>
    </g>
    <g id="text_20" fill="#FFAA00">
     <!-- inch -->
     <g transform="translate(14.798438 179.008344) rotate(-90) scale(0.1 -0.1)">
      <defs>
       <path id="DejaVuSans-69" d="M 603 3500 
L 1178 3500 
L 1178 0 
L 603 0 
L 603 3500 
z
M 603 4863 
L 1178 4863 
L 1178 4134 
L 603 4134 
L 603 4863 
z
" transform="scale(0.015625)"/>
       <path id="DejaVuSans-6e" d="M 3513 2113 
L 3513 0 
L 2938 0 
L 2938 2094 
Q 2938 2591 2744 2837 
Q 2550 3084 2163 3084 
Q 1697 3084 1428 2787 
Q 1159 2491 1159 1978 
L 1159 0 
L 581 0 
L 581 3500 
L 1159 3500 
L 1159 2956 
Q 1366 3272 1645 3428 
Q 1925 3584 2291 3584 
Q 2894 3584 3203 3211 
Q 3513 2838 3513 2113 
z
" transform="scale(0.015625)"/>
       <path id="DejaVuSans-63" d="M 3122 3366 
L 3122 2828 
Q 2878 2963 2633 3030 
Q 2388 3097 2138 3097 
Q 1578 3097 1268 2742 
Q 959 2388 959 1747 
Q 959 1106 1268 751 
Q 1578 397 2138 397 
Q 2388 397 2633 464 
Q 2878 531 3122 666 
L 3122 134 
Q 2881 22 2623 -34 
Q 2366 -91 2075 -91 
Q 1284 -91 818 406 
Q 353 903 353 1747 
Q 353 2603 823 3093 
Q 1294 3584 2113 3584 
Q 2378 3584 2631 3529 
Q 2884 3475 3122 3366 
z
" transform="scale(0.015625)"/>
       <path id="DejaVuSans-68" d="M 3513 2113 
L 3513 0 
L 2938 0 
L 2938 2094 
Q 2938 2591 2744 2837 
Q 2550 3084 2163 3084 
Q 1697 3084 1428 2787 
Q 1159 2491 1159 1978 
L 1159 0 
L 581 0 
L 581 4863 
L 1159 4863 
L 1159 2956 
Q 1366 3272 1645 3428 
Q 1925 3584 2291 3584 
Q 2894 3584 3203 3211 
Q 3513 2838 3513 2113 
z
" transform="scale(0.015625)"/>
      </defs>
      <use xlink:href="#DejaVuSans-69"/>
      <use xlink:href="#DejaVuSans-6e" transform="translate(27.783203 0)"/>
      <use xlink:href="#DejaVuSans-63" transform="translate(91.162109 0)"/>
      <use xlink:href="#DejaVuSans-68" transform="translate(146.142578 0)"/>
     </g>
    </g>
   </g>
   <g id="line2d_19">
    <path d="M 65.21554 184.618221 
L 71.708631 181.949522 
L 78.201722 179.426788 
L 79.262558 179.028655 
L 84.694812 177.052364 
L 91.187903 174.828656 
L 97.680994 172.7581 
L 104.174085 170.843189 
L 110.667176 169.086462 
L 117.160267 167.490512 
L 123.653358 166.057987 
L 130.146449 164.791582 
L 136.63954 163.694052 
L 143.132631 162.768204 
L 149.625722 162.016902 
L 156.118812 161.443066 
L 162.611903 161.049676 
L 169.104994 160.839768 
L 173.15929 160.803221 
L 175.598085 160.816372 
L 182.091176 160.98289 
L 188.584267 161.342384 
L 195.077358 161.898135 
L 201.570449 162.653569 
L 208.06354 163.612092 
L 214.556631 164.777232 
L 221.049722 166.15255 
L 227.542812 167.74172 
L 234.035903 169.548462 
L 240.528994 171.576588 
L 247.022085 173.829996 
L 253.515176 176.312664 
L 260.008266 179.028655 
L 266.501358 181.982119 
L 272.994449 185.177303 
L 279.48754 188.618543 
L 285.980631 192.310278 
L 292.473722 196.257043 
L 298.966812 200.463477 
L 305.459903 204.934326 
L 311.952994 209.674445 
L 318.446085 214.688811 
L 324.939176 219.982504 
L 331.432267 225.560738 
L 337.925358 231.428837 
L 344.418449 237.592265 
L 350.91154 244.056606 
L 357.404631 250.827587 
L 363.897722 257.911074 
L 370.390812 265.313077 
L 376.883903 273.039757 
L 383.376994 281.097427 
L 389.870085 289.492562 
" clip-path="url(#p5455e73307)" style="fill: none; stroke: #82b366; stroke-width: 2; stroke-linecap: square"/>
   </g>
   <g id="line2d_20">
    <path d="M 65.21554 179.028655 
L 389.870085 179.028655 
" clip-path="url(#p5455e73307)" style="fill: none; stroke-dasharray: 5.55,2.4; stroke-dashoffset: 0; stroke: #9673a6; stroke-width: 1.5"/>
   </g>
   <g id="line2d_21">
    <path d="M 65.21554 184.618221 
L 389.870085 47.572562 
" clip-path="url(#p5455e73307)" style="fill: none; stroke-dasharray: 1.5,2.475; stroke-dashoffset: 0; stroke: #b85450; stroke-width: 1.5"/>
   </g>
   <g id="line2d_22">
    <path d="M 79.262558 289.492562 
L 79.262558 179.028655 
" clip-path="url(#p5455e73307)" style="fill: none; stroke-dasharray: 1.5,2.475; stroke-dashoffset: 0; stroke: #d79b00; stroke-width: 1.5"/>
   </g>
   <g id="line2d_23">
    <path d="M 260.008266 289.492562 
L 260.008266 179.028655 
" clip-path="url(#p5455e73307)" style="fill: none; stroke-dasharray: 1.5,2.475; stroke-dashoffset: 0; stroke: #6c8ebf; stroke-width: 1.5"/>
   </g>
   <g id="line2d_24">
    <path d="M 292.473722 182.283127 
L 292.473722 210.230958 
" clip-path="url(#p5455e73307)" style="fill: none; stroke-dasharray: 1.5,2.475; stroke-dashoffset: 0; stroke: #ff0000; stroke-width: 1.5"/>
   </g>
   <g id="patch_8">
    <path d="M 48.982813 301.588562 
L 48.982813 35.476562 
" style="fill: none; stroke: #FFAA00; stroke-linejoin: miter; stroke-linecap: square"/>
   </g>
   <g id="patch_9">
    <path d="M 406.102813 301.588562 
L 406.102813 35.476562 
" style="fill: none; stroke: #FFAA00; stroke-linejoin: miter; stroke-linecap: square"/>
   </g>
   <g id="patch_10">
    <path d="M 48.982813 301.588562 
L 406.102813 301.588562 
" style="fill: none; stroke: #FFAA00; stroke-linejoin: miter; stroke-linecap: square"/>
   </g>
   <g id="patch_11">
    <path d="M 48.982813 35.476562 
L 406.102813 35.476562 
" style="fill: none; stroke: #FFAA00; stroke-linejoin: miter; stroke-linecap: square"/>
   </g>
   <g id="text_21" fill="#FFAA00">
    <!-- Sight line -->
    <g style="fill: #9673a6" transform="translate(353.869096 184.854123) scale(0.076667 -0.076667)">
     <defs>
      <path id="DejaVuSans-53" d="M 3425 4513 
L 3425 3897 
Q 3066 4069 2747 4153 
Q 2428 4238 2131 4238 
Q 1616 4238 1336 4038 
Q 1056 3838 1056 3469 
Q 1056 3159 1242 3001 
Q 1428 2844 1947 2747 
L 2328 2669 
Q 3034 2534 3370 2195 
Q 3706 1856 3706 1288 
Q 3706 609 3251 259 
Q 2797 -91 1919 -91 
Q 1588 -91 1214 -16 
Q 841 59 441 206 
L 441 856 
Q 825 641 1194 531 
Q 1563 422 1919 422 
Q 2459 422 2753 634 
Q 3047 847 3047 1241 
Q 3047 1584 2836 1778 
Q 2625 1972 2144 2069 
L 1759 2144 
Q 1053 2284 737 2584 
Q 422 2884 422 3419 
Q 422 4038 858 4394 
Q 1294 4750 2059 4750 
Q 2388 4750 2728 4690 
Q 3069 4631 3425 4513 
z
" transform="scale(0.015625)"/>
      <path id="DejaVuSans-67" d="M 2906 1791 
Q 2906 2416 2648 2759 
Q 2391 3103 1925 3103 
Q 1463 3103 1205 2759 
Q 947 2416 947 1791 
Q 947 1169 1205 825 
Q 1463 481 1925 481 
Q 2391 481 2648 825 
Q 2906 1169 2906 1791 
z
M 3481 434 
Q 3481 -459 3084 -895 
Q 2688 -1331 1869 -1331 
Q 1566 -1331 1297 -1286 
Q 1028 -1241 775 -1147 
L 775 -588 
Q 1028 -725 1275 -790 
Q 1522 -856 1778 -856 
Q 2344 -856 2625 -561 
Q 2906 -266 2906 331 
L 2906 616 
Q 2728 306 2450 153 
Q 2172 0 1784 0 
Q 1141 0 747 490 
Q 353 981 353 1791 
Q 353 2603 747 3093 
Q 1141 3584 1784 3584 
Q 2172 3584 2450 3431 
Q 2728 3278 2906 2969 
L 2906 3500 
L 3481 3500 
L 3481 434 
z
" transform="scale(0.015625)"/>
      <path id="DejaVuSans-20" transform="scale(0.015625)"/>
      <path id="DejaVuSans-6c" d="M 603 4863 
L 1178 4863 
L 1178 0 
L 603 0 
L 603 4863 
z
" transform="scale(0.015625)"/>
      <path id="DejaVuSans-65" d="M 3597 1894 
L 3597 1613 
L 953 1613 
Q 991 1019 1311 708 
Q 1631 397 2203 397 
Q 2534 397 2845 478 
Q 3156 559 3463 722 
L 3463 178 
Q 3153 47 2828 -22 
Q 2503 -91 2169 -91 
Q 1331 -91 842 396 
Q 353 884 353 1716 
Q 353 2575 817 3079 
Q 1281 3584 2069 3584 
Q 2775 3584 3186 3129 
Q 3597 2675 3597 1894 
z
M 3022 2063 
Q 3016 2534 2758 2815 
Q 2500 3097 2075 3097 
Q 1594 3097 1305 2825 
Q 1016 2553 972 2059 
L 3022 2063 
z
" transform="scale(0.015625)"/>
     </defs>
     <use xlink:href="#DejaVuSans-53"/>
     <use xlink:href="#DejaVuSans-69" transform="translate(63.476562 0)"/>
     <use xlink:href="#DejaVuSans-67" transform="translate(91.259766 0)"/>
     <use xlink:href="#DejaVuSans-68" transform="translate(154.736328 0)"/>
     <use xlink:href="#DejaVuSans-74" transform="translate(218.115234 0)"/>
     <use xlink:href="#DejaVuSans-20" transform="translate(257.324219 0)"/>
     <use xlink:href="#DejaVuSans-6c" transform="translate(289.111328 0)"/>
     <use xlink:href="#DejaVuSans-69" transform="translate(316.894531 0)"/>
     <use xlink:href="#DejaVuSans-6e" transform="translate(344.677734 0)"/>
     <use xlink:href="#DejaVuSans-65" transform="translate(408.056641 0)"/>
    </g>
   </g>
   <g id="text_22" fill="#FFAA00">
    <!-- Launch angle -->
    <g style="fill: #b85450" transform="translate(341.831982 66.12011) rotate(-22.885952) scale(0.076667 -0.076667)">
     <defs>
      <path id="DejaVuSans-4c" d="M 628 4666 
L 1259 4666 
L 1259 531 
L 3531 531 
L 3531 0 
L 628 0 
L 628 4666 
z
" transform="scale(0.015625)"/>
      <path id="DejaVuSans-61" d="M 2194 1759 
Q 1497 1759 1228 1600 
Q 959 1441 959 1056 
Q 959 750 1161 570 
Q 1363 391 1709 391 
Q 2188 391 2477 730 
Q 2766 1069 2766 1631 
L 2766 1759 
L 2194 1759 
z
M 3341 1997 
L 3341 0 
L 2766 0 
L 2766 531 
Q 2569 213 2275 61 
Q 1981 -91 1556 -91 
Q 1019 -91 701 211 
Q 384 513 384 1019 
Q 384 1609 779 1909 
Q 1175 2209 1959 2209 
L 2766 2209 
L 2766 2266 
Q 2766 2663 2505 2880 
Q 2244 3097 1772 3097 
Q 1472 3097 1187 3025 
Q 903 2953 641 2809 
L 641 3341 
Q 956 3463 1253 3523 
Q 1550 3584 1831 3584 
Q 2591 3584 2966 3190 
Q 3341 2797 3341 1997 
z
" transform="scale(0.015625)"/>
      <path id="DejaVuSans-75" d="M 544 1381 
L 544 3500 
L 1119 3500 
L 1119 1403 
Q 1119 906 1312 657 
Q 1506 409 1894 409 
Q 2359 409 2629 706 
Q 2900 1003 2900 1516 
L 2900 3500 
L 3475 3500 
L 3475 0 
L 2900 0 
L 2900 538 
Q 2691 219 2414 64 
Q 2138 -91 1772 -91 
Q 1169 -91 856 284 
Q 544 659 544 1381 
z
M 1991 3584 
L 1991 3584 
z
" transform="scale(0.015625)"/>
     </defs>
     <use xlink:href="#DejaVuSans-4c"/>
     <use xlink:href="#DejaVuSans-61" transform="translate(55.712891 0)"/>
     <use xlink:href="#DejaVuSans-75" transform="translate(116.992188 0)"/>
     <use xlink:href="#DejaVuSans-6e" transform="translate(180.371094 0)"/>
     <use xlink:href="#DejaVuSans-63" transform="translate(243.75 0)"/>
     <use xlink:href="#DejaVuSans-68" transform="translate(298.730469 0)"/>
     <use xlink:href="#DejaVuSans-20" transform="translate(362.109375 0)"/>
     <use xlink:href="#DejaVuSans-61" transform="translate(393.896484 0)"/>
     <use xlink:href="#DejaVuSans-6e" transform="translate(455.175781 0)"/>
     <use xlink:href="#DejaVuSans-67" transform="translate(518.554688 0)"/>
     <use xlink:href="#DejaVuSans-6c" transform="translate(582.03125 0)"/>
     <use xlink:href="#DejaVuSans-65" transform="translate(609.814453 0)"/>
    </g>
   </g>
   <g id="text_23" fill="#FFAA00">
    <!-- ZERO_UP -->
    <g style="fill: #d79b00" transform="translate(88.199208 291.300219) rotate(-90) scale(0.076667 -0.076667)">
     <defs>
      <path id="DejaVuSans-5a" d="M 359 4666 
L 4025 4666 
L 4025 4184 
L 1075 531 
L 4097 531 
L 4097 0 
L 288 0 
L 288 481 
L 3238 4134 
L 359 4134 
L 359 4666 
z
" transform="scale(0.015625)"/>
      <path id="DejaVuSans-45" d="M 628 4666 
L 3578 4666 
L 3578 4134 
L 1259 4134 
L 1259 2753 
L 3481 2753 
L 3481 2222 
L 1259 2222 
L 1259 531 
L 3634 531 
L 3634 0 
L 628 0 
L 628 4666 
z
" transform="scale(0.015625)"/>
      <path id="DejaVuSans-52" d="M 2841 2188 
Q 3044 2119 3236 1894 
Q 3428 1669 3622 1275 
L 4263 0 
L 3584 0 
L 2988 1197 
Q 2756 1666 2539 1819 
Q 2322 1972 1947 1972 
L 1259 1972 
L 1259 0 
L 628 0 
L 628 4666 
L 2053 4666 
Q 2853 4666 3247 4331 
Q 3641 3997 3641 3322 
Q 3641 2881 3436 2590 
Q 3231 2300 2841 2188 
z
M 1259 4147 
L 1259 2491 
L 2053 2491 
Q 2509 2491 2742 2702 
Q 2975 2913 2975 3322 
Q 2975 3731 2742 3939 
Q 2509 4147 2053 4147 
L 1259 4147 
z
" transform="scale(0.015625)"/>
      <path id="DejaVuSans-4f" d="M 2522 4238 
Q 1834 4238 1429 3725 
Q 1025 3213 1025 2328 
Q 1025 1447 1429 934 
Q 1834 422 2522 422 
Q 3209 422 3611 934 
Q 4013 1447 4013 2328 
Q 4013 3213 3611 3725 
Q 3209 4238 2522 4238 
z
M 2522 4750 
Q 3503 4750 4090 4092 
Q 4678 3434 4678 2328 
Q 4678 1225 4090 567 
Q 3503 -91 2522 -91 
Q 1538 -91 948 565 
Q 359 1222 359 2328 
Q 359 3434 948 4092 
Q 1538 4750 2522 4750 
z
" transform="scale(0.015625)"/>
      <path id="DejaVuSans-5f" d="M 3263 -1063 
L 3263 -1509 
L -63 -1509 
L -63 -1063 
L 3263 -1063 
z
" transform="scale(0.015625)"/>
      <path id="DejaVuSans-55" d="M 556 4666 
L 1191 4666 
L 1191 1831 
Q 1191 1081 1462 751 
Q 1734 422 2344 422 
Q 2950 422 3222 751 
Q 3494 1081 3494 1831 
L 3494 4666 
L 4128 4666 
L 4128 1753 
Q 4128 841 3676 375 
Q 3225 -91 2344 -91 
Q 1459 -91 1007 375 
Q 556 841 556 1753 
L 556 4666 
z
" transform="scale(0.015625)"/>
      <path id="DejaVuSans-50" d="M 1259 4147 
L 1259 2394 
L 2053 2394 
Q 2494 2394 2734 2622 
Q 2975 2850 2975 3272 
Q 2975 3691 2734 3919 
Q 2494 4147 2053 4147 
L 1259 4147 
z
M 628 4666 
L 2053 4666 
Q 2838 4666 3239 4311 
Q 3641 3956 3641 3272 
Q 3641 2581 3239 2228 
Q 2838 1875 2053 1875 
L 1259 1875 
L 1259 0 
L 628 0 
L 628 4666 
z
" transform="scale(0.015625)"/>
     </defs>
     <use xlink:href="#DejaVuSans-5a"/>
     <use xlink:href="#DejaVuSans-45" transform="translate(68.505859 0)"/>
     <use xlink:href="#DejaVuSans-52" transform="translate(131.689453 0)"/>
     <use xlink:href="#DejaVuSans-4f" transform="translate(201.171875 0)"/>
     <use xlink:href="#DejaVuSans-5f" transform="translate(279.882812 0)"/>
     <use xlink:href="#DejaVuSans-55" transform="translate(329.882812 0)"/>
     <use xlink:href="#DejaVuSans-50" transform="translate(403.076172 0)"/>
    </g>
   </g>
   <g id="text_24" fill="#FFAA00">
    <!-- ZERO_DOWN -->
    <g style="fill: #6c8ebf" transform="translate(268.944915 291.300219) rotate(-90) scale(0.076667 -0.076667)">
     <defs>
      <path id="DejaVuSans-44" d="M 1259 4147 
L 1259 519 
L 2022 519 
Q 2988 519 3436 956 
Q 3884 1394 3884 2338 
Q 3884 3275 3436 3711 
Q 2988 4147 2022 4147 
L 1259 4147 
z
M 628 4666 
L 1925 4666 
Q 3281 4666 3915 4102 
Q 4550 3538 4550 2338 
Q 4550 1131 3912 565 
Q 3275 0 1925 0 
L 628 0 
L 628 4666 
z
" transform="scale(0.015625)"/>
      <path id="DejaVuSans-57" d="M 213 4666 
L 850 4666 
L 1831 722 
L 2809 4666 
L 3519 4666 
L 4500 722 
L 5478 4666 
L 6119 4666 
L 4947 0 
L 4153 0 
L 3169 4050 
L 2175 0 
L 1381 0 
L 213 4666 
z
" transform="scale(0.015625)"/>
      <path id="DejaVuSans-4e" d="M 628 4666 
L 1478 4666 
L 3547 763 
L 3547 4666 
L 4159 4666 
L 4159 0 
L 3309 0 
L 1241 3903 
L 1241 0 
L 628 0 
L 628 4666 
z
" transform="scale(0.015625)"/>
     </defs>
     <use xlink:href="#DejaVuSans-5a"/>
     <use xlink:href="#DejaVuSans-45" transform="translate(68.505859 0)"/>
     <use xlink:href="#DejaVuSans-52" transform="translate(131.689453 0)"/>
     <use xlink:href="#DejaVuSans-4f" transform="translate(201.171875 0)"/>
     <use xlink:href="#DejaVuSans-5f" transform="translate(279.882812 0)"/>
     <use xlink:href="#DejaVuSans-44" transform="translate(329.882812 0)"/>
     <use xlink:href="#DejaVuSans-4f" transform="translate(406.884766 0)"/>
     <use xlink:href="#DejaVuSans-57" transform="translate(485.595703 0)"/>
     <use xlink:href="#DejaVuSans-4e" transform="translate(584.472656 0)"/>
    </g>
   </g>
   <g id="text_25" fill="#FFAA00">
    <!-- Danger space -->
    <g style="fill: #ff0000" transform="translate(263.348592 216.056427) scale(0.076667 -0.076667)">
     <defs>
      <path id="DejaVuSans-72" d="M 2631 2963 
Q 2534 3019 2420 3045 
Q 2306 3072 2169 3072 
Q 1681 3072 1420 2755 
Q 1159 2438 1159 1844 
L 1159 0 
L 581 0 
L 581 3500 
L 1159 3500 
L 1159 2956 
Q 1341 3275 1631 3429 
Q 1922 3584 2338 3584 
Q 2397 3584 2469 3576 
Q 2541 3569 2628 3553 
L 2631 2963 
z
" transform="scale(0.015625)"/>
      <path id="DejaVuSans-70" d="M 1159 525 
L 1159 -1331 
L 581 -1331 
L 581 3500 
L 1159 3500 
L 1159 2969 
Q 1341 3281 1617 3432 
Q 1894 3584 2278 3584 
Q 2916 3584 3314 3078 
Q 3713 2572 3713 1747 
Q 3713 922 3314 415 
Q 2916 -91 2278 -91 
Q 1894 -91 1617 61 
Q 1341 213 1159 525 
z
M 3116 1747 
Q 3116 2381 2855 2742 
Q 2594 3103 2138 3103 
Q 1681 3103 1420 2742 
Q 1159 2381 1159 1747 
Q 1159 1113 1420 752 
Q 1681 391 2138 391 
Q 2594 391 2855 752 
Q 3116 1113 3116 1747 
z
" transform="scale(0.015625)"/>
     </defs>
     <use xlink:href="#DejaVuSans-44"/>
     <use xlink:href="#DejaVuSans-61" transform="translate(77.001953 0)"/>
     <use xlink:href="#DejaVuSans-6e" transform="translate(138.28125 0)"/>
     <use xlink:href="#DejaVuSans-67" transform="translate(201.660156 0)"/>
     <use xlink:href="#DejaVuSans-65" transform="translate(265.136719 0)"/>
     <use xlink:href="#DejaVuSans-72" transform="translate(326.660156 0)"/>
     <use xlink:href="#DejaVuSans-20" transform="translate(367.773438 0)"/>
     <use xlink:href="#DejaVuSans-73" transform="translate(399.560547 0)"/>
     <use xlink:href="#DejaVuSans-70" transform="translate(451.660156 0)"/>
     <use xlink:href="#DejaVuSans-61" transform="translate(515.136719 0)"/>
     <use xlink:href="#DejaVuSans-63" transform="translate(576.416016 0)"/>
     <use xlink:href="#DejaVuSans-65" transform="translate(631.396484 0)"/>
    </g>
    <!-- at 350.0yd -->
    <g style="fill: #ff0000" transform="translate(269.164477 224.641417) scale(0.076667 -0.076667)">
     <defs>
      <path id="DejaVuSans-2e" d="M 684 794 
L 1344 794 
L 1344 0 
L 684 0 
L 684 794 
z
" transform="scale(0.015625)"/>
     </defs>
     <use xlink:href="#DejaVuSans-61"/>
     <use xlink:href="#DejaVuSans-74" transform="translate(61.279297 0)"/>
     <use xlink:href="#DejaVuSans-20" transform="translate(100.488281 0)"/>
     <use xlink:href="#DejaVuSans-33" transform="translate(132.275391 0)"/>
     <use xlink:href="#DejaVuSans-35" transform="translate(195.898438 0)"/>
     <use xlink:href="#DejaVuSans-30" transform="translate(259.521484 0)"/>
     <use xlink:href="#DejaVuSans-2e" transform="translate(323.144531 0)"/>
     <use xlink:href="#DejaVuSans-30" transform="translate(354.931641 0)"/>
     <use xlink:href="#DejaVuSans-79" transform="translate(418.554688 0)"/>
     <use xlink:href="#DejaVuSans-64" transform="translate(477.734375 0)"/>
    </g>
   </g>
   <g id="legend_1">
    <g id="patch_12">
     <path d="M 55.982813 72.832812 
L 161.54375 72.832812 
Q 163.54375 72.832812 163.54375 70.832812 
L 163.54375 42.476562 
Q 163.54375 40.476562 161.54375 40.476562 
L 55.982813 40.476562 
Q 53.982813 40.476562 53.982813 42.476562 
L 53.982813 70.832812 
Q 53.982813 72.832812 55.982813 72.832812 
z
" style="fill: #ffffff; opacity: 0.8; stroke: #cccccc; stroke-linejoin: miter"/>
    </g>
    <g id="line2d_25">
     <path d="M 57.982813 48.575 
L 67.982813 48.575 
L 77.982813 48.575 
" style="fill: none; stroke: #82b366; stroke-width: 2; stroke-linecap: square"/>
    </g>
    <g id="text_26" fill="#FFAA00">
     <!-- height -->
     <g transform="translate(85.982813 52.075) scale(0.1 -0.1)">
      <use xlink:href="#DejaVuSans-68"/>
      <use xlink:href="#DejaVuSans-65" transform="translate(63.378906 0)"/>
      <use xlink:href="#DejaVuSans-69" transform="translate(124.902344 0)"/>
      <use xlink:href="#DejaVuSans-67" transform="translate(152.685547 0)"/>
      <use xlink:href="#DejaVuSans-68" transform="translate(216.162109 0)"/>
      <use xlink:href="#DejaVuSans-74" transform="translate(279.541016 0)"/>
     </g>
    </g>
    <g id="line2d_26">
     <path d="M 57.982813 63.253125 
L 67.982813 63.253125 
L 77.982813 63.253125 
" style="fill: none; stroke: #6c8ebf; stroke-width: 1.5; stroke-linecap: square"/>
    </g>
    <g id="text_27" fill="#FFAA00">
     <!-- velocity (right) -->
     <g transform="translate(85.982813 66.753125) scale(0.1 -0.1)">
      <defs>
       <path id="DejaVuSans-76" d="M 191 3500 
L 800 3500 
L 1894 563 
L 2988 3500 
L 3597 3500 
L 2284 0 
L 1503 0 
L 191 3500 
z
" transform="scale(0.015625)"/>
       <path id="DejaVuSans-6f" d="M 1959 3097 
Q 1497 3097 1228 2736 
Q 959 2375 959 1747 
Q 959 1119 1226 758 
Q 1494 397 1959 397 
Q 2419 397 2687 759 
Q 2956 1122 2956 1747 
Q 2956 2369 2687 2733 
Q 2419 3097 1959 3097 
z
M 1959 3584 
Q 2709 3584 3137 3096 
Q 3566 2609 3566 1747 
Q 3566 888 3137 398 
Q 2709 -91 1959 -91 
Q 1206 -91 779 398 
Q 353 888 353 1747 
Q 353 2609 779 3096 
Q 1206 3584 1959 3584 
z
" transform="scale(0.015625)"/>
       <path id="DejaVuSans-28" d="M 1984 4856 
Q 1566 4138 1362 3434 
Q 1159 2731 1159 2009 
Q 1159 1288 1364 580 
Q 1569 -128 1984 -844 
L 1484 -844 
Q 1016 -109 783 600 
Q 550 1309 550 2009 
Q 550 2706 781 3412 
Q 1013 4119 1484 4856 
L 1984 4856 
z
" transform="scale(0.015625)"/>
       <path id="DejaVuSans-29" d="M 513 4856 
L 1013 4856 
Q 1481 4119 1714 3412 
Q 1947 2706 1947 2009 
Q 1947 1309 1714 600 
Q 1481 -109 1013 -844 
L 513 -844 
Q 928 -128 1133 580 
Q 1338 1288 1338 2009 
Q 1338 2731 1133 3434 
Q 928 4138 513 4856 
z
" transform="scale(0.015625)"/>
      </defs>
      <use xlink:href="#DejaVuSans-76"/>
      <use xlink:href="#DejaVuSans-65" transform="translate(59.179688 0)"/>
      <use xlink:href="#DejaVuSans-6c" transform="translate(120.703125 0)"/>
      <use xlink:href="#DejaVuSans-6f" transform="translate(148.486328 0)"/>
      <use xlink:href="#DejaVuSans-63" transform="translate(209.667969 0)"/>
      <use xlink:href="#DejaVuSans-69" transform="translate(264.648438 0)"/>
      <use xlink:href="#DejaVuSans-74" transform="translate(292.431641 0)"/>
      <use xlink:href="#DejaVuSans-79" transform="translate(331.640625 0)"/>
      <use xlink:href="#DejaVuSans-20" transform="translate(390.820312 0)"/>
      <use xlink:href="#DejaVuSans-28" transform="translate(422.607422 0)"/>
      <use xlink:href="#DejaVuSans-72" transform="translate(461.621094 0)"/>
      <use xlink:href="#DejaVuSans-69" transform="translate(502.734375 0)"/>
      <use xlink:href="#DejaVuSans-67" transform="translate(530.517578 0)"/>
      <use xlink:href="#DejaVuSans-68" transform="translate(593.994141 0)"/>
      <use xlink:href="#DejaVuSans-74" transform="translate(657.373047 0)"/>
      <use xlink:href="#DejaVuSans-29" transform="translate(696.582031 0)"/>
     </g>
    </g>
   </g>
  </g>
  <g id="axes_3">
   <g id="matplotlib.axis_4">
    <g id="xtick_7">
     <g id="line2d_27">
      <defs>
       <path id="md0ed0ded26" d="M 0 0 
L 0 -3.5 
" style="stroke: #FFAA00; stroke-width: 0.8"/>
      </defs>
      <g>
       <use xlink:href="#md0ed0ded26" x="65.21554" y="35.476562" style="stroke: #FFAA00; stroke-width: 0.8"/>
      </g>
     </g>
     <g id="text_28" fill="#FFAA00">
      <!-- 0.0 -->
      <g transform="translate(57.263977 26.396875) scale(0.1 -0.1)">
       <use xlink:href="#DejaVuSans-30"/>
       <use xlink:href="#DejaVuSans-2e" transform="translate(63.623047 0)"/>
       <use xlink:href="#DejaVuSans-30" transform="translate(95.410156 0)"/>
      </g>
     </g>
    </g>
    <g id="xtick_8">
     <g id="line2d_28">
      <g>
       <use xlink:href="#md0ed0ded26" x="130.146449" y="35.476562" style="stroke: #FFAA00; stroke-width: 0.8"/>
      </g>
     </g>
     <g id="text_29" fill="#FFAA00">
      <!-- 0.1 -->
      <g transform="translate(122.194886 26.396875) scale(0.1 -0.1)">
       <use xlink:href="#DejaVuSans-30"/>
       <use xlink:href="#DejaVuSans-2e" transform="translate(63.623047 0)"/>
       <use xlink:href="#DejaVuSans-31" transform="translate(95.410156 0)"/>
      </g>
     </g>
    </g>
    <g id="xtick_9">
     <g id="line2d_29">
      <g>
       <use xlink:href="#md0ed0ded26" x="195.077358" y="35.476562" style="stroke: #FFAA00; stroke-width: 0.8"/>
      </g>
     </g>
     <g id="text_30" fill="#FFAA00">
      <!-- 0.3 -->
      <g transform="translate(187.125795 26.396875) scale(0.1 -0.1)">
       <use xlink:href="#DejaVuSans-30"/>
       <use xlink:href="#DejaVuSans-2e" transform="translate(63.623047 0)"/>
       <use xlink:href="#DejaVuSans-33" transform="translate(95.410156 0)"/>
      </g>
     </g>
    </g>
    <g id="xtick_10">
     <g id="line2d_30">
      <g>
       <use xlink:href="#md0ed0ded26" x="260.008267" y="35.476562" style="stroke: #FFAA00; stroke-width: 0.8"/>
      </g>
     </g>
     <g id="text_31" fill="#FFAA00">
      <!-- 0.4 -->
      <g transform="translate(252.056705 26.396875) scale(0.1 -0.1)">
       <use xlink:href="#DejaVuSans-30"/>
       <use xlink:href="#DejaVuSans-2e" transform="translate(63.623047 0)"/>
       <use xlink:href="#DejaVuSans-34" transform="translate(95.410156 0)"/>
      </g>
     </g>
    </g>
    <g id="xtick_11">
     <g id="line2d_31">
      <g>
       <use xlink:href="#md0ed0ded26" x="324.939176" y="35.476562" style="stroke: #FFAA00; stroke-width: 0.8"/>
      </g>
     </g>
     <g id="text_32" fill="#FFAA00">
      <!-- 0.5 -->
      <g transform="translate(316.987614 26.396875) scale(0.1 -0.1)">
       <use xlink:href="#DejaVuSans-30"/>
       <use xlink:href="#DejaVuSans-2e" transform="translate(63.623047 0)"/>
       <use xlink:href="#DejaVuSans-35" transform="translate(95.410156 0)"/>
      </g>
     </g>
    </g>
    <g id="xtick_12">
     <g id="line2d_32">
      <g>
       <use xlink:href="#md0ed0ded26" x="389.870085" y="35.476562" style="stroke: #FFAA00; stroke-width: 0.8"/>
      </g>
     </g>
     <g id="text_33" fill="#FFAA00">
      <!-- 0.7 -->
      <g transform="translate(381.918523 26.396875) scale(0.1 -0.1)">
       <defs>
        <path id="DejaVuSans-37" d="M 525 4666 
L 3525 4666 
L 3525 4397 
L 1831 0 
L 1172 0 
L 2766 4134 
L 525 4134 
L 525 4666 
z
" transform="scale(0.015625)"/>
       </defs>
       <use xlink:href="#DejaVuSans-30"/>
       <use xlink:href="#DejaVuSans-2e" transform="translate(63.623047 0)"/>
       <use xlink:href="#DejaVuSans-37" transform="translate(95.410156 0)"/>
      </g>
     </g>
    </g>
    <g id="text_34" fill="#FFAA00">
     <!-- s -->
     <g transform="translate(224.938125 14.798437) scale(0.1 -0.1)">
      <use xlink:href="#DejaVuSans-73"/>
     </g>
    </g>
   </g>
   <g id="patch_13">
    <path d="M 48.982813 301.588562 
L 48.982813 35.476562 
" style="fill: none; stroke: #FFAA00; stroke-width: 0.8; stroke-linejoin: miter; stroke-linecap: square"/>
   </g>
   <g id="patch_14">
    <path d="M 406.102813 301.588562 
L 406.102813 35.476562 
" style="fill: none; stroke: #FFAA00; stroke-width: 0.8; stroke-linejoin: miter; stroke-linecap: square"/>
   </g>
   <g id="patch_15">
    <path d="M 48.982813 301.588562 
L 406.102813 301.588562 
" style="fill: none; stroke: #FFAA00; stroke-width: 0.8; stroke-linejoin: miter; stroke-linecap: square"/>
   </g>
   <g id="patch_16">
    <path d="M 48.982813 35.476562 
L 406.102813 35.476562 
" style="fill: none; stroke: #FFAA00; stroke-width: 0.8; stroke-linejoin: miter; stroke-linecap: square"/>
   </g>
  </g>
 </g>
 <defs>
  <clipPath id="p5455e73307">
   <rect x="48.982813" y="35.476562" width="357.12" height="266.112"/>
  </clipPath>
 </defs>
</svg>
